<svg width="1512" height="258" viewBox="0 0 1512 258" fill="none" xmlns="http://www.w3.org/2000/svg">
<g clip-path="url(#clip0_2238_421)">
<rect width="1748.71" height="57" transform="translate(-10 200.814) rotate(-6.59414)" fill="#EEE6F9"/>
<g clip-path="url(#clip1_2238_421)">
<path d="M22.2362 235.845C16.4844 236.509 11.265 232.371 10.6005 226.619C9.93605 220.867 14.0744 215.648 19.8261 214.984C25.5779 214.319 30.7973 218.457 31.4618 224.209C32.1263 229.961 27.9879 235.18 22.2362 235.845ZM19.9983 216.474C15.0661 217.043 11.5208 221.515 12.0906 226.447C12.6604 231.379 17.1318 234.925 22.064 234.355C26.9962 233.785 30.5415 229.314 29.9717 224.381C29.4019 219.449 24.9305 215.904 19.9983 216.474Z" fill="#5100BF"/>
<path d="M24.4418 228.795C24.3077 228.811 24.1701 228.796 24.0423 228.736L20.0589 226.931C19.9409 226.877 19.839 226.794 19.7632 226.689C19.6875 226.583 19.6406 226.46 19.6272 226.331L18.9387 220.371C18.8905 219.954 19.1804 219.588 19.5976 219.54C20.0149 219.492 20.3805 219.782 20.4288 220.199L21.0691 225.742L24.6691 227.365C24.8177 227.434 24.9396 227.549 25.0166 227.694C25.0936 227.838 25.1213 228.004 25.0956 228.166C25.0699 228.327 24.9922 228.476 24.8742 228.59C24.7562 228.704 24.6044 228.776 24.4418 228.795Z" fill="#5100BF"/>
</g>
<path d="M46.4378 230.53L45.3032 220.715L41.886 221.11L41.6793 219.322C42.7257 219.201 43.6049 218.911 44.317 218.453C45.0291 217.995 45.4121 217.36 45.4659 216.549L47.3136 216.335L48.9213 230.242L46.4378 230.53ZM53.7822 229.681C53.5474 227.533 54.3644 225.66 56.2332 224.062C56.44 223.877 56.7751 223.583 57.2386 223.181C57.7154 222.777 58.074 222.453 58.3144 222.211C58.568 221.967 58.842 221.667 59.1364 221.31C59.4425 220.939 59.6544 220.566 59.772 220.19C59.8896 219.814 59.9312 219.42 59.897 219.008C59.822 218.359 59.584 217.809 59.183 217.359C58.7804 216.895 58.142 216.714 57.2678 216.815C55.7447 216.991 55.0839 218.242 55.2856 220.568L53.0207 220.829C52.837 219.24 53.1049 217.9 53.8245 216.811C54.5574 215.719 55.6788 215.086 57.1887 214.912C57.9967 214.818 58.7214 214.875 59.3628 215.083C60.0027 215.278 60.5069 215.575 60.8753 215.975C61.2569 216.374 61.5482 216.804 61.749 217.264C61.9615 217.709 62.0961 218.176 62.1528 218.666C62.2477 219.488 62.123 220.267 61.7788 221.005C61.4478 221.741 60.9986 222.384 60.4312 222.932C59.8623 223.468 59.2829 223.971 58.6931 224.442C58.1033 224.913 57.5695 225.404 57.0917 225.916C56.6257 226.412 56.3517 226.887 56.2698 227.339L63.0447 226.556L63.2789 228.583L53.7822 229.681ZM64.5659 220.965L64.2558 218.282L67.0175 217.963L67.3275 220.645L64.5659 220.965ZM65.418 228.335L65.1079 225.653L67.8695 225.334L68.1796 228.016L65.418 228.335ZM77.4801 226.559C76.8684 227.072 76.0857 227.384 75.1321 227.494C74.1784 227.605 73.3452 227.479 72.6324 227.119C71.9181 226.745 71.3517 226.2 70.9333 225.483C70.5149 224.767 70.1951 224.032 69.9739 223.279C69.7526 222.526 69.5907 221.706 69.4881 220.818C69.3855 219.931 69.356 219.095 69.3997 218.312C69.4433 217.528 69.5871 216.74 69.8309 215.947C70.0748 215.154 70.5026 214.5 71.1143 213.986C71.7245 213.46 72.5064 213.141 73.4601 213.031C74.4137 212.92 75.2477 213.052 75.962 213.426C76.6748 213.787 77.2404 214.325 77.6588 215.042C78.0772 215.759 78.397 216.493 78.6183 217.246C78.8395 217.999 79.0015 218.819 79.104 219.707C79.2066 220.594 79.2361 221.43 79.1925 222.213C79.1488 222.997 79.0051 223.785 78.7612 224.578C78.5174 225.372 78.0903 226.032 77.4801 226.559ZM71.753 220.557C72.1649 224.119 73.2185 225.803 74.9139 225.607C76.6093 225.411 77.251 223.532 76.8391 219.969C76.4273 216.406 75.3736 214.722 73.6783 214.918C71.9829 215.114 71.3411 216.994 71.753 220.557ZM88.5199 225.282C87.9082 225.796 87.1255 226.108 86.1718 226.218C85.2182 226.328 84.385 226.203 83.6722 225.843C82.9579 225.469 82.3915 224.924 81.9731 224.207C81.5547 223.49 81.2349 222.756 81.0136 222.003C80.7924 221.25 80.6304 220.43 80.5278 219.542C80.4253 218.655 80.3958 217.819 80.4394 217.036C80.4831 216.252 80.6268 215.464 80.8707 214.671C81.1145 213.877 81.5423 213.224 82.1541 212.71C82.7643 212.183 83.5462 211.865 84.4998 211.755C85.4535 211.644 86.2875 211.776 87.0018 212.15C87.7146 212.51 88.2801 213.049 88.6986 213.766C89.117 214.482 89.4368 215.217 89.658 215.97C89.8793 216.723 90.0412 217.543 90.1438 218.431C90.2464 219.318 90.2759 220.153 90.2322 220.937C90.1886 221.72 90.0448 222.509 89.801 223.302C89.5571 224.095 89.1301 224.755 88.5199 225.282ZM82.7928 219.28C83.2046 222.843 84.2583 224.527 85.9536 224.331C87.649 224.135 88.2908 222.255 87.8789 218.692C87.467 215.129 86.4134 213.446 84.718 213.642C83.0226 213.838 82.3809 215.717 82.7928 219.28ZM98.6957 224.489L97.0559 210.303L103.314 209.58C104.268 209.469 105.099 209.514 105.806 209.714C106.514 209.914 107.054 210.234 107.427 210.674C107.813 211.113 108.1 211.556 108.286 212.005C108.47 212.44 108.591 212.909 108.65 213.412C108.708 213.916 108.697 214.407 108.619 214.886C108.538 215.351 108.359 215.835 108.082 216.337C107.817 216.837 107.364 217.265 106.72 217.622C106.077 217.978 105.278 218.211 104.325 218.321L100.55 218.758L101.179 224.201L98.6957 224.489ZM99.7736 212.042L100.316 216.731L103.951 216.311C104.614 216.234 105.168 215.982 105.616 215.555C106.076 215.126 106.259 214.501 106.164 213.679C105.983 212.117 105.078 211.429 103.449 211.618L99.7736 212.042ZM111.908 222.961L110.268 208.776L113.764 208.372L118.962 219.025L119.002 219.02L121.533 207.473L124.99 207.074L126.63 221.259L124.265 221.533L123 210.586L122.96 210.59L120.292 221.992L118.245 222.229L113.046 211.736L113.006 211.741L114.272 222.688L111.908 222.961Z" fill="#5100BF"/>
<path d="M163.259 210.483C162.522 210.568 161.777 210.432 161.117 210.094C160.457 209.755 159.912 209.229 159.551 208.581C159.191 207.932 159.031 207.192 159.091 206.453C159.151 205.713 159.429 205.009 159.89 204.428C160.351 203.846 160.974 203.415 161.68 203.188C162.386 202.96 163.143 202.948 163.856 203.151C164.57 203.354 165.207 203.765 165.687 204.33C166.167 204.895 166.469 205.59 166.554 206.327C166.667 207.315 166.383 208.307 165.765 209.086C165.148 209.865 164.246 210.367 163.259 210.483ZM162.57 204.522C162.128 204.573 161.711 204.754 161.372 205.042C161.033 205.33 160.787 205.713 160.665 206.141C160.543 206.569 160.55 207.023 160.687 207.447C160.823 207.87 161.082 208.244 161.431 208.52C161.779 208.797 162.202 208.964 162.646 209C163.089 209.036 163.533 208.94 163.922 208.724C164.311 208.507 164.627 208.18 164.83 207.784C165.033 207.389 165.115 206.941 165.064 206.499C164.995 205.907 164.693 205.366 164.226 204.995C163.758 204.624 163.163 204.454 162.57 204.522Z" fill="#5100BF"/>
<path d="M164.292 219.423L157.151 212.737C157.05 212.636 156.951 212.534 156.852 212.431C155.615 211.14 154.836 209.48 154.633 207.704C154.382 205.531 155.005 203.346 156.364 201.632C157.724 199.917 159.708 198.813 161.882 198.562C164.056 198.311 166.24 198.933 167.954 200.293C169.669 201.652 170.773 203.637 171.024 205.811C171.232 207.585 170.852 209.379 169.942 210.916L169.941 210.919C169.941 210.919 169.752 211.238 169.723 211.281L164.292 219.423ZM157.938 211.396C157.939 211.395 158.139 211.605 158.184 211.65L164.026 217.119L168.473 210.453C168.501 210.408 168.648 210.157 168.649 210.156C169.393 208.899 169.704 207.433 169.534 205.983C169.329 204.204 168.425 202.58 167.022 201.468C165.62 200.356 163.833 199.847 162.054 200.052C160.276 200.257 158.652 201.161 157.54 202.564C156.427 203.966 155.918 205.754 156.123 207.532C156.29 208.984 156.926 210.341 157.938 211.396Z" fill="#5100BF"/>
<path d="M185.718 214.429L184.078 200.243L186.561 199.956L187.953 211.996L195.165 211.162L195.413 213.308L185.718 214.429ZM197.126 213.11L195.486 198.925L205.698 197.744L205.946 199.89L198.218 200.783L198.647 204.498L205.799 203.672L206.034 205.698L198.881 206.525L199.361 210.677L207.229 209.768L207.477 211.913L197.126 213.11ZM209.64 211.663L208 197.478L210.484 197.191L211.23 203.648L216.802 196.46L219.861 196.107L214.854 202.424L221.899 210.246L218.799 210.605L213.367 204.367L211.572 206.608L212.124 211.376L209.64 211.663ZM223.241 210.091L221.601 195.906L224.085 195.619L224.831 202.076L230.403 194.888L233.462 194.534L228.454 200.851L235.499 208.674L232.4 209.032L226.968 202.795L225.173 205.036L225.725 209.804L223.241 210.091ZM236.842 208.519L235.202 194.333L237.686 194.046L239.325 208.232L236.842 208.519ZM242.232 207.896L241.922 205.214L244.684 204.894L244.994 207.576C245.074 208.386 244.901 209.097 244.476 209.71C244.065 210.335 243.464 210.773 242.675 211.026L242.535 209.814C242.946 209.659 243.243 209.383 243.425 208.986C243.609 208.602 243.669 208.186 243.603 207.737L242.232 207.896ZM253.431 206.601L251.791 192.416L254.274 192.129L255.666 204.168L262.878 203.335L263.126 205.48L253.431 206.601ZM263.19 205.473L266.994 190.658L269.636 190.353L276.74 203.907L274.078 204.214L272.312 200.613L266.65 201.268L265.753 205.177L263.19 205.473ZM267.107 199.302L271.438 198.802L268.608 192.948L268.548 192.955L267.107 199.302ZM276.615 196.734C276.373 194.641 276.785 192.808 277.852 191.235C278.932 189.661 280.498 188.755 282.551 188.518C284.154 188.332 285.567 188.598 286.791 189.316C288.028 190.032 288.828 191.147 289.191 192.662L286.767 192.943C286.545 192.069 286.062 191.427 285.316 191.017C284.569 190.593 283.726 190.435 282.785 190.544C281.368 190.708 280.356 191.362 279.75 192.506C279.143 193.636 278.926 194.95 279.099 196.446C279.272 197.943 279.784 199.179 280.635 200.155C281.484 201.117 282.617 201.516 284.035 201.352C285.296 201.233 286.225 200.79 286.82 200.023C287.428 199.242 287.674 198.234 287.558 196.999L283.783 197.435L283.565 195.548L289.605 194.849L290.468 202.32L288.879 202.503L288.308 200.878C287.745 201.695 287.15 202.294 286.523 202.675C285.908 203.041 285.156 203.276 284.269 203.379C282.216 203.616 280.485 203.098 279.076 201.825C277.679 200.537 276.859 198.839 276.615 196.734ZM292.828 189.504C293.908 187.929 295.474 187.024 297.527 186.786C299.58 186.549 301.305 187.074 302.702 188.362C304.113 189.649 304.939 191.339 305.181 193.431C305.424 195.537 305.006 197.377 303.926 198.952C302.858 200.512 301.298 201.41 299.245 201.647C297.192 201.885 295.461 201.367 294.052 200.093C292.655 198.805 291.835 197.108 291.591 195.002C291.349 192.91 291.761 191.077 292.828 189.504ZM301.163 190.03C300.313 189.055 299.178 188.649 297.761 188.813C296.344 188.977 295.332 189.63 294.726 190.774C294.119 191.905 293.902 193.218 294.075 194.715C294.248 196.212 294.76 197.448 295.611 198.423C296.46 199.385 297.593 199.785 299.011 199.621C300.428 199.457 301.44 198.81 302.048 197.679C302.654 196.535 302.87 195.215 302.697 193.718C302.524 192.222 302.013 190.992 301.163 190.03ZM306.86 195.633L309.343 195.346C309.463 196.379 309.883 197.109 310.603 197.536C311.322 197.949 312.218 198.094 313.291 197.97C314.311 197.852 315.042 197.56 315.485 197.092C315.926 196.612 316.112 196.074 316.043 195.478C315.942 194.603 315.484 194.066 314.668 193.865C314.35 193.781 313.993 193.708 313.596 193.646C313.213 193.583 312.681 193.511 312.001 193.428C311.332 193.331 310.765 193.249 310.301 193.182C308.146 192.881 306.961 191.803 306.746 189.948C306.592 188.611 306.983 187.525 307.92 186.692C308.869 185.844 310.046 185.339 311.45 185.177C312.999 184.998 314.337 185.252 315.464 185.941C316.602 186.615 317.253 187.66 317.417 189.077L314.933 189.364C314.608 187.711 313.492 186.994 311.584 187.215C310.896 187.294 310.303 187.511 309.807 187.863C309.324 188.214 309.12 188.714 309.195 189.363C309.298 190.251 309.931 190.795 311.095 190.996C311.109 190.994 311.429 191.038 312.057 191.126C312.684 191.215 313.326 191.309 313.982 191.407C314.651 191.504 315.095 191.574 315.314 191.616C316.234 191.791 316.971 192.189 317.526 192.81C318.08 193.417 318.402 194.118 318.494 194.912C318.583 195.68 318.503 196.381 318.254 197.014C318.003 197.633 317.62 198.147 317.103 198.556C316.599 198.95 316.032 199.271 315.403 199.518C314.773 199.765 314.095 199.931 313.366 200.015C311.644 200.214 310.185 199.953 308.987 199.233C307.79 198.512 307.081 197.312 306.86 195.633Z" fill="#5100BF"/>
<g clip-path="url(#clip2_2238_421)">
<path d="M365.874 197.631L346.503 199.869C345.266 200.012 344.152 199.129 344.01 197.892L341.944 180.011C341.801 178.774 342.684 177.66 343.921 177.517L363.292 175.28C364.529 175.137 365.642 176.02 365.785 177.256L367.851 195.138C367.994 196.374 367.111 197.488 365.874 197.631ZM344.093 179.008C343.676 179.056 343.386 179.421 343.434 179.839L345.5 197.72C345.548 198.137 345.913 198.427 346.331 198.379L365.702 196.141C366.119 196.093 366.409 195.727 366.361 195.31L364.295 177.429C364.247 177.011 363.881 176.721 363.464 176.77L344.093 179.008Z" fill="#5100BF"/>
<path d="M348.908 181.471C348.49 181.519 348.125 181.229 348.077 180.812L347.56 176.342C347.512 175.925 347.802 175.559 348.219 175.511C348.636 175.463 349.002 175.753 349.05 176.17L349.567 180.64C349.615 181.057 349.325 181.423 348.908 181.471ZM359.338 180.266C358.921 180.314 358.555 180.024 358.507 179.607L357.991 175.137C357.943 174.72 358.232 174.354 358.65 174.306C359.067 174.258 359.433 174.548 359.481 174.965L359.997 179.435C360.045 179.852 359.756 180.218 359.338 180.266ZM365.643 182.558L343.292 185.14C342.874 185.188 342.509 184.898 342.46 184.481C342.412 184.064 342.702 183.698 343.119 183.65L365.471 181.068C365.888 181.02 366.254 181.309 366.302 181.727C366.35 182.144 366.06 182.51 365.643 182.558Z" fill="#5100BF"/>
</g>
<path d="M380.286 191.937L379.151 182.122L375.734 182.517L375.527 180.729C376.574 180.608 377.453 180.318 378.165 179.86C378.877 179.402 379.26 178.767 379.314 177.956L381.162 177.742L382.769 191.65L380.286 191.937ZM386.998 187.013C386.897 186.139 387.037 185.378 387.419 184.73C387.8 184.082 388.377 183.612 389.149 183.322L389.144 183.282C387.776 182.944 387.01 182.066 386.846 180.649C386.709 179.457 386.979 178.486 387.657 177.736C388.334 176.973 389.361 176.512 390.739 176.353C392.116 176.194 393.222 176.408 394.055 176.997C394.886 177.572 395.371 178.455 395.509 179.647C395.673 181.064 395.127 182.094 393.873 182.736L393.877 182.775C394.695 182.882 395.363 183.207 395.883 183.751C396.402 184.295 396.712 185.005 396.813 185.879C396.968 187.216 396.634 188.336 395.812 189.236C394.988 190.123 393.855 190.65 392.411 190.817C390.967 190.984 389.743 190.729 388.739 190.053C387.733 189.364 387.153 188.351 386.998 187.013ZM389.776 181.961C390.228 182.271 390.779 182.389 391.428 182.314C392.077 182.238 392.579 181.999 392.935 181.596C393.305 181.191 393.452 180.664 393.377 180.014C393.3 179.352 393.035 178.859 392.582 178.536C392.127 178.199 391.581 178.068 390.946 178.141C390.31 178.215 389.809 178.467 389.443 178.899C389.075 179.317 388.929 179.858 389.006 180.52C389.081 181.169 389.338 181.649 389.776 181.961ZM389.263 186.751C389.357 187.559 389.675 188.167 390.219 188.574C390.761 188.967 391.423 189.119 392.204 189.029C392.986 188.938 393.595 188.64 394.033 188.133C394.47 187.613 394.641 186.948 394.548 186.141C394.461 185.386 394.14 184.819 393.586 184.44C393.046 184.059 392.391 183.913 391.623 184.002C390.855 184.091 390.244 184.383 389.792 184.878C389.352 185.372 389.176 185.996 389.263 186.751ZM396.662 177.843L396.414 175.697L407.898 174.37L408.146 176.515L403.636 177.037L405.028 189.076L402.544 189.364L401.153 177.324L396.662 177.843ZM411.123 188.372L409.483 174.186L411.966 173.899L412.619 179.542L419.076 178.795L418.423 173.153L420.907 172.866L422.547 187.051L420.063 187.338L419.324 180.941L412.867 181.687L413.606 188.085L411.123 188.372ZM429.649 181.439L432.133 181.151C432.252 182.185 432.672 182.915 433.392 183.341C434.111 183.755 435.007 183.9 436.08 183.776C437.1 183.658 437.831 183.365 438.274 182.898C438.715 182.417 438.901 181.879 438.832 181.283C438.731 180.409 438.273 179.871 437.458 179.67C437.139 179.586 436.782 179.513 436.385 179.452C436.002 179.389 435.47 179.316 434.79 179.234C434.121 179.136 433.554 179.054 433.09 178.987C430.935 178.686 429.75 177.608 429.536 175.754C429.381 174.416 429.772 173.331 430.709 172.498C431.658 171.65 432.835 171.145 434.239 170.982C435.788 170.803 437.126 171.058 438.253 171.746C439.391 172.42 440.042 173.466 440.206 174.883L437.723 175.17C437.397 173.516 436.281 172.8 434.374 173.02C433.685 173.1 433.092 173.316 432.596 173.669C432.113 174.02 431.909 174.52 431.985 175.169C432.087 176.056 432.72 176.601 433.885 176.802C433.898 176.8 434.218 176.843 434.846 176.932C435.474 177.02 436.115 177.114 436.771 177.213C437.44 177.31 437.884 177.379 438.104 177.421C439.023 177.597 439.76 177.995 440.315 178.615C440.869 179.222 441.191 179.923 441.283 180.718C441.372 181.486 441.292 182.186 441.043 182.819C440.792 183.439 440.409 183.953 439.892 184.362C439.388 184.756 438.821 185.076 438.192 185.323C437.563 185.57 436.884 185.736 436.155 185.82C434.433 186.019 432.974 185.759 431.776 185.038C430.579 184.317 429.87 183.118 429.649 181.439ZM443.933 184.579L442.293 170.394L452.505 169.213L452.753 171.359L445.025 172.252L445.454 175.967L452.606 175.141L452.841 177.167L445.688 177.994L446.168 182.146L454.036 181.237L454.284 183.382L443.933 184.579ZM456.447 183.132L454.807 168.947L461.066 168.223C462.019 168.113 462.85 168.158 463.558 168.358C464.265 168.558 464.806 168.878 465.179 169.318C465.565 169.757 465.851 170.2 466.037 170.649C466.222 171.084 466.343 171.553 466.401 172.056C466.459 172.559 466.449 173.05 466.37 173.529C466.29 173.995 466.111 174.479 465.833 174.981C465.569 175.481 465.115 175.909 464.472 176.265C463.828 176.622 463.03 176.855 462.076 176.965L458.301 177.402L458.931 182.845L456.447 183.132ZM457.525 170.686L458.067 175.375L461.703 174.955C462.365 174.878 462.92 174.626 463.367 174.199C463.828 173.77 464.01 173.144 463.915 172.323C463.735 170.76 462.83 170.073 461.201 170.261L457.525 170.686ZM466.956 169.717L466.708 167.571L478.192 166.244L478.44 168.389L473.93 168.911L475.321 180.951L472.838 181.238L471.446 169.198L466.956 169.717ZM481.476 180.239L479.836 166.054L490.048 164.873L490.296 167.019L482.568 167.912L482.997 171.627L490.149 170.801L490.384 172.827L483.231 173.654L483.711 177.806L491.579 176.897L491.827 179.042L481.476 180.239ZM493.95 178.797L492.311 164.611L495.807 164.207L501.005 174.861L501.045 174.856L503.576 163.309L507.033 162.91L508.672 177.095L506.308 177.368L505.043 166.421L505.003 166.426L502.335 177.828L500.288 178.064L495.089 167.572L495.049 167.577L496.315 178.524L493.95 178.797ZM511.646 176.751L510.006 162.566L516.9 161.769C518.212 161.617 519.273 161.797 520.083 162.307C520.907 162.816 521.386 163.646 521.519 164.799C521.684 166.229 521.125 167.314 519.841 168.053L519.846 168.092C520.728 168.178 521.431 168.513 521.955 169.097C522.492 169.679 522.818 170.46 522.931 171.44C523.067 172.619 522.74 173.623 521.95 174.453C521.174 175.281 519.911 175.796 518.163 175.998L511.646 176.751ZM513.176 168.219L517.229 167.751C517.839 167.68 518.315 167.451 518.66 167.062C519.017 166.672 519.16 166.165 519.088 165.543C519.009 164.854 518.779 164.377 518.399 164.112C518.02 163.847 517.479 163.756 516.777 163.837L512.724 164.305L513.176 168.219ZM513.895 174.438L518.286 173.93C519.041 173.843 519.602 173.584 519.968 173.152C520.346 172.706 520.493 172.125 520.411 171.41C520.329 170.708 520.056 170.196 519.589 169.874C519.134 169.537 518.529 169.412 517.774 169.5L513.383 170.007L513.895 174.438ZM525.635 175.134L523.995 160.949L534.207 159.768L534.455 161.914L526.727 162.807L527.156 166.523L534.308 165.696L534.543 167.722L527.39 168.549L527.87 172.701L535.738 171.792L535.986 173.938L525.635 175.134ZM538.149 173.688L536.509 159.502L543.284 158.719C544.821 158.541 546.025 158.744 546.898 159.328C547.769 159.898 548.275 160.793 548.416 162.011C548.49 162.647 548.461 163.214 548.331 163.712C548.201 164.211 547.999 164.61 547.725 164.91C547.449 165.197 547.218 165.405 547.032 165.534C546.858 165.661 546.676 165.769 546.485 165.859L546.49 165.898C547.041 165.902 547.555 166.117 548.034 166.545C548.525 166.958 548.828 167.661 548.943 168.655C549.166 170.589 549.568 171.804 550.149 172.3L547.487 172.608C547.188 172.227 546.982 171.546 546.868 170.566C546.711 169.201 546.4 168.258 545.937 167.734C545.487 167.209 544.712 167.01 543.613 167.137L539.957 167.559L540.633 173.401L538.149 173.688ZM539.227 161.241L539.739 165.672L543.812 165.201C545.428 165.014 546.149 164.166 545.974 162.656C545.878 161.822 545.587 161.278 545.101 161.026C544.629 160.771 544.015 160.688 543.26 160.775L539.227 161.241ZM551.999 172.087L551.689 169.404L554.451 169.085L554.761 171.767C554.841 172.577 554.668 173.288 554.242 173.901C553.831 174.526 553.231 174.964 552.441 175.216L552.301 174.005C552.713 173.85 553.01 173.574 553.192 173.177C553.376 172.793 553.435 172.377 553.37 171.928L551.999 172.087ZM562.462 170.877C562.227 168.73 563.044 166.857 564.913 165.258C565.12 165.073 565.455 164.78 565.919 164.377C566.395 163.973 566.754 163.65 566.994 163.407C567.248 163.163 567.522 162.863 567.816 162.507C568.122 162.136 568.334 161.762 568.452 161.386C568.57 161.01 568.611 160.616 568.577 160.204C568.502 159.555 568.264 159.006 567.863 158.555C567.46 158.092 566.822 157.911 565.948 158.012C564.425 158.188 563.764 159.439 563.966 161.764L561.701 162.026C561.517 160.437 561.785 159.097 562.505 158.007C563.237 156.916 564.359 156.283 565.869 156.108C566.677 156.015 567.401 156.072 568.043 156.28C568.683 156.474 569.187 156.771 569.555 157.172C569.937 157.571 570.228 158 570.429 158.46C570.641 158.905 570.776 159.373 570.833 159.863C570.928 160.684 570.803 161.464 570.459 162.201C570.128 162.938 569.679 163.58 569.111 164.129C568.542 164.664 567.963 165.168 567.373 165.638C566.783 166.109 566.249 166.6 565.772 167.112C565.306 167.609 565.032 168.083 564.95 168.536L571.725 167.753L571.959 169.779L562.462 170.877ZM580.631 168.394C580.019 168.908 579.236 169.22 578.282 169.33C577.329 169.44 576.496 169.315 575.783 168.955C575.069 168.581 574.502 168.036 574.084 167.319C573.665 166.602 573.346 165.867 573.124 165.115C572.903 164.362 572.741 163.541 572.638 162.654C572.536 161.767 572.506 160.931 572.55 160.148C572.594 159.364 572.737 158.576 572.981 157.782C573.225 156.989 573.653 156.336 574.265 155.822C574.875 155.295 575.657 154.977 576.61 154.866C577.564 154.756 578.398 154.888 579.112 155.262C579.825 155.622 580.391 156.161 580.809 156.878C581.228 157.594 581.547 158.329 581.769 159.082C581.99 159.835 582.152 160.655 582.254 161.542C582.357 162.43 582.387 163.265 582.343 164.049C582.299 164.832 582.155 165.621 581.912 166.414C581.668 167.207 581.241 167.867 580.631 168.394ZM574.903 162.392C575.315 165.955 576.369 167.639 578.064 167.443C579.76 167.247 580.401 165.367 579.99 161.804C579.578 158.241 578.524 156.558 576.829 156.754C575.133 156.95 574.492 158.829 574.903 162.392ZM584.542 168.325C584.307 166.177 585.124 164.305 586.993 162.706C587.199 162.521 587.535 162.227 587.998 161.825C588.475 161.421 588.833 161.097 589.074 160.855C589.328 160.611 589.602 160.311 589.896 159.954C590.202 159.583 590.414 159.21 590.531 158.834C590.649 158.458 590.691 158.064 590.657 157.652C590.582 157.003 590.343 156.453 589.942 156.003C589.54 155.539 588.902 155.358 588.027 155.459C586.504 155.635 585.843 156.886 586.045 159.212L583.78 159.474C583.596 157.884 583.864 156.544 584.584 155.455C585.317 154.363 586.438 153.73 587.948 153.556C588.756 153.462 589.481 153.519 590.122 153.727C590.762 153.922 591.266 154.219 591.635 154.619C592.016 155.018 592.308 155.448 592.508 155.908C592.721 156.353 592.856 156.82 592.912 157.311C593.007 158.132 592.883 158.911 592.538 159.649C592.207 160.385 591.758 161.028 591.191 161.576C590.622 162.112 590.042 162.615 589.453 163.086C588.863 163.557 588.329 164.048 587.851 164.56C587.385 165.056 587.111 165.531 587.029 165.983L593.804 165.2L594.038 167.227L584.542 168.325ZM594.894 162.497L597.159 162.235C597.234 163.113 597.528 163.803 598.043 164.308C598.569 164.797 599.263 164.992 600.124 164.893C600.905 164.802 601.516 164.51 601.955 164.016C602.407 163.508 602.588 162.87 602.499 162.101C602.439 161.585 602.291 161.172 602.054 160.864C601.816 160.543 601.496 160.331 601.095 160.23C600.706 160.114 600.317 160.058 599.928 160.063C599.538 160.055 599.092 160.086 598.59 160.157L598.395 158.469C599.26 158.409 599.971 158.172 600.527 157.759C601.082 157.332 601.314 156.722 601.222 155.927C601.153 155.331 600.892 154.878 600.44 154.568C600.002 154.256 599.464 154.137 598.829 154.211C598.087 154.296 597.544 154.648 597.199 155.265C596.853 155.868 596.737 156.553 596.852 157.318L594.588 157.58C594.481 156.196 594.787 155.013 595.506 154.031C596.238 153.047 597.286 152.476 598.65 152.319C599.829 152.182 600.894 152.395 601.845 152.956C602.794 153.504 603.336 154.361 603.47 155.526C603.647 157.049 603.106 158.119 601.848 158.734L601.853 158.774C602.666 158.841 603.327 159.16 603.836 159.732C604.358 160.303 604.672 161.045 604.778 161.959C604.925 163.23 604.56 164.313 603.683 165.206C602.82 166.098 601.706 166.622 600.342 166.78C598.779 166.961 597.531 166.669 596.597 165.904C595.661 165.127 595.094 163.991 594.894 162.497Z" fill="#5100BF"/>
<g clip-path="url(#clip3_2238_421)">
<path d="M642.113 164.187C636.361 164.851 631.142 160.713 630.477 154.961C629.813 149.21 633.951 143.99 639.703 143.326C645.455 142.661 650.674 146.799 651.339 152.551C652.003 158.303 647.865 163.522 642.113 164.187ZM639.875 144.816C634.943 145.386 631.398 149.857 631.968 154.789C632.537 159.721 637.009 163.267 641.941 162.697C646.873 162.127 650.418 157.656 649.849 152.723C649.279 147.791 644.807 144.246 639.875 144.816Z" fill="#5100BF"/>
<path d="M644.319 157.137C644.185 157.153 644.047 157.138 643.919 157.078L639.936 155.273C639.818 155.219 639.716 155.136 639.64 155.031C639.564 154.925 639.518 154.802 639.504 154.673L638.816 148.713C638.767 148.296 639.057 147.93 639.475 147.882C639.892 147.834 640.258 148.124 640.306 148.541L640.946 154.084L644.546 155.707C644.695 155.776 644.817 155.891 644.894 156.036C644.971 156.18 644.998 156.346 644.973 156.508C644.947 156.669 644.869 156.818 644.751 156.932C644.633 157.046 644.481 157.118 644.319 157.137Z" fill="#5100BF"/>
</g>
<path d="M666.315 158.872L665.18 149.057L661.763 149.452L661.556 147.664C662.603 147.543 663.482 147.253 664.194 146.795C664.906 146.337 665.289 145.702 665.343 144.891L667.191 144.677L668.798 158.585L666.315 158.872ZM673.659 158.023C673.424 155.875 674.241 154.002 676.11 152.404C676.317 152.219 676.652 151.925 677.116 151.523C677.592 151.119 677.951 150.795 678.191 150.553C678.445 150.309 678.719 150.009 679.013 149.652C679.319 149.281 679.531 148.908 679.649 148.532C679.767 148.156 679.808 147.762 679.774 147.35C679.699 146.701 679.461 146.151 679.06 145.701C678.657 145.237 678.019 145.056 677.145 145.157C675.622 145.333 674.961 146.584 675.163 148.91L672.898 149.172C672.714 147.582 672.982 146.242 673.701 145.153C674.434 144.061 675.556 143.428 677.066 143.254C677.874 143.16 678.598 143.217 679.24 143.425C679.88 143.62 680.384 143.917 680.752 144.317C681.134 144.716 681.425 145.146 681.626 145.606C681.838 146.051 681.973 146.518 682.03 147.009C682.125 147.83 682 148.609 681.656 149.347C681.325 150.083 680.876 150.726 680.308 151.274C679.739 151.81 679.16 152.313 678.57 152.784C677.98 153.255 677.446 153.746 676.969 154.258C676.503 154.754 676.229 155.229 676.147 155.681L682.922 154.898L683.156 156.925L673.659 158.023ZM684.443 149.307L684.133 146.624L686.894 146.305L687.204 148.987L684.443 149.307ZM685.295 156.678L684.985 153.995L687.746 153.676L688.057 156.358L685.295 156.678ZM697.357 154.901C696.745 155.414 695.963 155.726 695.009 155.836C694.055 155.947 693.222 155.822 692.509 155.461C691.795 155.087 691.229 154.542 690.81 153.825C690.392 153.109 690.072 152.374 689.851 151.621C689.63 150.868 689.468 150.048 689.365 149.16C689.262 148.273 689.233 147.437 689.277 146.654C689.32 145.87 689.464 145.082 689.708 144.289C689.952 143.496 690.38 142.842 690.991 142.328C691.601 141.802 692.383 141.483 693.337 141.373C694.291 141.263 695.125 141.394 695.839 141.768C696.552 142.129 697.117 142.667 697.536 143.384C697.954 144.101 698.274 144.835 698.495 145.588C698.716 146.341 698.878 147.161 698.981 148.049C699.084 148.936 699.113 149.772 699.069 150.555C699.026 151.339 698.882 152.127 698.638 152.92C698.394 153.714 697.967 154.374 697.357 154.901ZM691.63 148.899C692.042 152.462 693.095 154.145 694.791 153.949C696.486 153.753 697.128 151.874 696.716 148.311C696.304 144.748 695.251 143.064 693.555 143.26C691.86 143.456 691.218 145.336 691.63 148.899ZM708.397 153.624C707.785 154.138 707.002 154.45 706.049 154.56C705.095 154.67 704.262 154.545 703.549 154.185C702.835 153.811 702.268 153.266 701.85 152.549C701.432 151.832 701.112 151.098 700.891 150.345C700.669 149.592 700.507 148.772 700.405 147.884C700.302 146.997 700.273 146.161 700.316 145.378C700.36 144.594 700.504 143.806 700.748 143.013C700.991 142.219 701.419 141.566 702.031 141.052C702.641 140.525 703.423 140.207 704.377 140.097C705.33 139.986 706.164 140.118 706.879 140.492C707.592 140.852 708.157 141.391 708.576 142.108C708.994 142.824 709.314 143.559 709.535 144.312C709.756 145.065 709.918 145.885 710.021 146.773C710.123 147.66 710.153 148.495 710.109 149.279C710.066 150.063 709.922 150.851 709.678 151.644C709.434 152.437 709.007 153.098 708.397 153.624ZM702.67 147.622C703.082 151.185 704.135 152.869 705.831 152.673C707.526 152.477 708.168 150.597 707.756 147.034C707.344 143.471 706.29 141.788 704.595 141.984C702.9 142.18 702.258 144.059 702.67 147.622ZM718.573 152.831L716.933 138.645L723.191 137.922C724.145 137.811 724.975 137.856 725.683 138.056C726.391 138.256 726.931 138.576 727.304 139.017C727.69 139.455 727.977 139.898 728.163 140.347C728.347 140.782 728.468 141.251 728.527 141.754C728.585 142.258 728.574 142.749 728.496 143.228C728.415 143.693 728.236 144.177 727.959 144.679C727.694 145.179 727.241 145.607 726.597 145.964C725.954 146.32 725.155 146.553 724.202 146.663L720.427 147.1L721.056 152.544L718.573 152.831ZM719.651 140.384L720.193 145.073L723.828 144.653C724.491 144.576 725.045 144.324 725.493 143.897C725.953 143.468 726.136 142.843 726.041 142.021C725.86 140.459 724.955 139.771 723.326 139.96L719.651 140.384ZM731.785 151.303L730.145 137.118L733.641 136.714L738.839 147.367L738.879 147.363L741.41 135.816L744.867 135.416L746.507 149.601L744.142 149.875L742.877 138.928L742.837 138.932L740.169 150.334L738.122 150.571L732.923 140.078L732.883 140.083L734.149 151.03L731.785 151.303Z" fill="#5100BF"/>
<g clip-path="url(#clip4_2238_421)">
<path d="M783.136 138.825C782.399 138.91 781.654 138.774 780.994 138.436C780.334 138.097 779.789 137.571 779.428 136.923C779.068 136.274 778.908 135.534 778.968 134.795C779.028 134.056 779.306 133.351 779.767 132.77C780.228 132.188 780.851 131.757 781.557 131.53C782.263 131.303 783.02 131.29 783.733 131.493C784.447 131.696 785.084 132.107 785.564 132.672C786.044 133.237 786.345 133.932 786.431 134.669C786.544 135.657 786.26 136.649 785.642 137.428C785.025 138.207 784.123 138.709 783.136 138.825ZM782.447 132.864C782.005 132.915 781.588 133.096 781.249 133.384C780.91 133.673 780.664 134.055 780.542 134.483C780.42 134.911 780.427 135.365 780.564 135.789C780.7 136.212 780.959 136.586 781.308 136.862C781.656 137.139 782.079 137.306 782.523 137.342C782.966 137.378 783.41 137.282 783.799 137.066C784.188 136.849 784.504 136.522 784.707 136.126C784.91 135.731 784.992 135.283 784.941 134.841C784.871 134.249 784.57 133.708 784.103 133.337C783.635 132.966 783.04 132.796 782.447 132.864Z" fill="#5100BF"/>
<path d="M784.169 147.765L777.027 141.079C776.927 140.978 776.828 140.876 776.729 140.773C775.492 139.483 774.713 137.822 774.51 136.046C774.259 133.873 774.882 131.688 776.241 129.974C777.601 128.259 779.585 127.155 781.759 126.904C783.933 126.653 786.117 127.275 787.831 128.635C789.546 129.994 790.65 131.979 790.901 134.153C791.109 135.927 790.729 137.721 789.819 139.258L789.818 139.261C789.818 139.261 789.629 139.58 789.6 139.623L784.169 147.765ZM777.815 139.738C777.816 139.737 778.016 139.947 778.061 139.992L783.903 145.461L788.35 138.795C788.378 138.75 788.525 138.499 788.526 138.498C789.27 137.241 789.58 135.775 789.411 134.325C789.206 132.546 788.302 130.922 786.899 129.81C785.497 128.698 783.71 128.189 781.931 128.394C780.153 128.599 778.529 129.503 777.417 130.906C776.304 132.309 775.795 134.096 776 135.874C776.167 137.326 776.803 138.683 777.815 139.738Z" fill="#5100BF"/>
</g>
<path d="M805.594 142.771L803.955 128.585L806.438 128.298L807.83 140.338L815.042 139.504L815.29 141.65L805.594 142.771ZM817.003 141.452L815.363 127.267L825.575 126.086L825.823 128.232L818.095 129.125L818.524 132.84L825.676 132.014L825.911 134.04L818.758 134.867L819.238 139.019L827.106 138.11L827.354 140.255L817.003 141.452ZM829.517 140.005L827.877 125.82L830.361 125.533L831.107 131.99L836.679 124.802L839.738 124.449L834.731 130.766L841.776 138.588L838.676 138.947L833.244 132.709L831.449 134.95L832.001 139.718L829.517 140.005ZM843.118 138.433L841.478 124.248L843.962 123.961L844.708 130.418L850.28 123.23L853.339 122.876L848.331 129.193L855.376 137.016L852.277 137.374L846.845 131.137L845.05 133.378L845.601 138.146L843.118 138.433ZM856.719 136.861L855.079 122.675L857.562 122.388L859.202 136.574L856.719 136.861ZM862.109 136.238L861.799 133.556L864.561 133.236L864.871 135.919C864.951 136.728 864.778 137.439 864.353 138.052C863.942 138.677 863.341 139.115 862.552 139.368L862.412 138.156C862.823 138.001 863.12 137.725 863.302 137.328C863.486 136.944 863.546 136.528 863.48 136.079L862.109 136.238ZM873.308 134.943L871.668 120.758L874.151 120.471L875.543 132.51L882.755 131.677L883.003 133.822L873.308 134.943ZM883.067 133.815L886.871 119L889.513 118.695L896.617 132.249L893.954 132.556L892.189 128.955L886.527 129.61L885.63 133.519L883.067 133.815ZM886.984 127.644L891.315 127.144L888.485 121.29L888.425 121.297L886.984 127.644ZM896.492 125.076C896.25 122.983 896.662 121.15 897.729 119.577C898.808 118.003 900.375 117.097 902.428 116.86C904.03 116.674 905.444 116.94 906.668 117.658C907.905 118.374 908.705 119.489 909.068 121.004L906.644 121.285C906.422 120.411 905.938 119.769 905.193 119.359C904.446 118.935 903.602 118.777 902.662 118.886C901.245 119.05 900.233 119.704 899.627 120.848C899.02 121.978 898.802 123.292 898.975 124.788C899.149 126.285 899.661 127.521 900.511 128.497C901.361 129.459 902.494 129.858 903.911 129.694C905.173 129.575 906.101 129.132 906.697 128.365C907.305 127.584 907.551 126.576 907.435 125.341L903.66 125.777L903.442 123.89L909.482 123.191L910.345 130.662L908.756 130.845L908.185 129.22C907.622 130.037 907.027 130.636 906.4 131.017C905.785 131.384 905.033 131.618 904.146 131.721C902.093 131.958 900.362 131.44 898.953 130.167C897.556 128.879 896.735 127.182 896.492 125.076ZM912.705 117.846C913.785 116.272 915.351 115.366 917.404 115.128C919.457 114.891 921.182 115.416 922.579 116.704C923.99 117.991 924.816 119.681 925.058 121.773C925.301 123.879 924.883 125.72 923.803 127.294C922.735 128.854 921.175 129.752 919.122 129.989C917.069 130.227 915.338 129.709 913.929 128.435C912.532 127.147 911.712 125.45 911.468 123.344C911.226 121.252 911.638 119.419 912.705 117.846ZM921.04 118.372C920.189 117.397 919.055 116.991 917.638 117.155C916.221 117.319 915.209 117.972 914.603 119.116C913.996 120.247 913.779 121.561 913.952 123.057C914.125 124.554 914.637 125.79 915.488 126.765C916.337 127.728 917.47 128.127 918.888 127.963C920.305 127.799 921.317 127.152 921.925 126.021C922.531 124.877 922.747 123.557 922.574 122.06C922.401 120.564 921.89 119.334 921.04 118.372ZM926.737 123.975L929.22 123.688C929.34 124.721 929.76 125.451 930.48 125.878C931.199 126.291 932.095 126.436 933.168 126.312C934.188 126.194 934.919 125.902 935.361 125.434C935.803 124.954 935.989 124.416 935.92 123.82C935.819 122.945 935.361 122.408 934.545 122.207C934.227 122.123 933.87 122.05 933.473 121.988C933.09 121.925 932.558 121.853 931.878 121.77C931.209 121.673 930.642 121.591 930.178 121.524C928.023 121.223 926.838 120.145 926.623 118.291C926.469 116.953 926.86 115.867 927.797 115.034C928.746 114.186 929.922 113.681 931.326 113.519C932.876 113.34 934.214 113.594 935.341 114.283C936.479 114.957 937.13 116.002 937.294 117.419L934.81 117.707C934.485 116.053 933.369 115.336 931.461 115.557C930.773 115.636 930.18 115.853 929.684 116.205C929.201 116.556 928.997 117.056 929.072 117.705C929.175 118.593 929.808 119.137 930.972 119.338C930.986 119.337 931.306 119.38 931.934 119.469C932.561 119.557 933.203 119.651 933.859 119.749C934.528 119.846 934.972 119.916 935.191 119.958C936.111 120.133 936.848 120.531 937.403 121.152C937.957 121.759 938.279 122.46 938.371 123.254C938.46 124.023 938.38 124.723 938.131 125.356C937.88 125.975 937.497 126.489 936.98 126.898C936.476 127.292 935.909 127.613 935.279 127.86C934.65 128.107 933.972 128.273 933.243 128.357C931.521 128.556 930.062 128.295 928.864 127.575C927.667 126.854 926.958 125.654 926.737 123.975Z" fill="#5100BF"/>
<g clip-path="url(#clip5_2238_421)">
<path d="M985.752 125.973L966.381 128.211C965.144 128.354 964.03 127.471 963.887 126.234L961.822 108.353C961.679 107.116 962.562 106.002 963.799 105.859L983.17 103.622C984.407 103.479 985.52 104.362 985.663 105.598L987.729 123.48C987.872 124.716 986.989 125.83 985.752 125.973ZM963.971 107.35C963.554 107.398 963.264 107.763 963.312 108.181L965.378 126.062C965.426 126.479 965.791 126.769 966.209 126.721L985.58 124.483C985.997 124.435 986.287 124.069 986.239 123.652L984.173 105.771C984.125 105.353 983.759 105.063 983.342 105.112L963.971 107.35Z" fill="#5100BF"/>
<path d="M968.786 109.813C968.368 109.861 968.003 109.572 967.954 109.154L967.438 104.684C967.39 104.267 967.68 103.901 968.097 103.853C968.514 103.805 968.88 104.095 968.928 104.512L969.445 108.982C969.493 109.399 969.203 109.765 968.786 109.813ZM979.216 108.608C978.799 108.656 978.433 108.366 978.385 107.949L977.869 103.479C977.82 103.062 978.11 102.696 978.528 102.648C978.945 102.6 979.311 102.89 979.359 103.307L979.875 107.777C979.923 108.194 979.633 108.56 979.216 108.608ZM985.521 110.9L963.17 113.482C962.752 113.53 962.387 113.24 962.338 112.823C962.29 112.406 962.58 112.04 962.997 111.992L985.349 109.41C985.766 109.362 986.132 109.651 986.18 110.069C986.228 110.486 985.938 110.852 985.521 110.9Z" fill="#5100BF"/>
</g>
<path d="M1000.16 120.279L999.029 110.464L995.612 110.859L995.405 109.071C996.452 108.95 997.331 108.66 998.043 108.202C998.755 107.744 999.138 107.109 999.192 106.298L1001.04 106.084L1002.65 119.992L1000.16 120.279ZM1006.88 115.355C1006.78 114.481 1006.92 113.72 1007.3 113.072C1007.68 112.424 1008.25 111.955 1009.03 111.664L1009.02 111.624C1007.65 111.286 1006.89 110.408 1006.72 108.991C1006.59 107.799 1006.86 106.828 1007.54 106.078C1008.21 105.315 1009.24 104.854 1010.62 104.695C1011.99 104.536 1013.1 104.75 1013.93 105.339C1014.76 105.914 1015.25 106.797 1015.39 107.989C1015.55 109.407 1015.01 110.436 1013.75 111.078L1013.76 111.117C1014.57 111.224 1015.24 111.55 1015.76 112.094C1016.28 112.637 1016.59 113.347 1016.69 114.221C1016.85 115.558 1016.51 116.678 1015.69 117.578C1014.87 118.465 1013.73 118.992 1012.29 119.159C1010.85 119.326 1009.62 119.071 1008.62 118.396C1007.61 117.706 1007.03 116.693 1006.88 115.355ZM1009.65 110.303C1010.11 110.613 1010.66 110.731 1011.31 110.656C1011.95 110.581 1012.46 110.341 1012.81 109.938C1013.18 109.533 1013.33 109.006 1013.25 108.357C1013.18 107.694 1012.91 107.201 1012.46 106.878C1012 106.541 1011.46 106.41 1010.82 106.483C1010.19 106.557 1009.69 106.809 1009.32 107.241C1008.95 107.659 1008.81 108.2 1008.88 108.862C1008.96 109.511 1009.22 109.991 1009.65 110.303ZM1009.14 115.093C1009.23 115.901 1009.55 116.509 1010.1 116.916C1010.64 117.309 1011.3 117.461 1012.08 117.371C1012.86 117.28 1013.47 116.982 1013.91 116.475C1014.35 115.955 1014.52 115.291 1014.43 114.483C1014.34 113.728 1014.02 113.161 1013.46 112.782C1012.92 112.401 1012.27 112.255 1011.5 112.344C1010.73 112.433 1010.12 112.725 1009.67 113.22C1009.23 113.714 1009.05 114.339 1009.14 115.093ZM1016.54 106.185L1016.29 104.039L1027.78 102.712L1028.02 104.857L1023.51 105.379L1024.91 117.419L1022.42 117.706L1021.03 105.666L1016.54 106.185ZM1031 116.714L1029.36 102.528L1031.84 102.241L1032.5 107.884L1038.95 107.137L1038.3 101.495L1040.78 101.208L1042.42 115.393L1039.94 115.68L1039.2 109.283L1032.74 110.029L1033.48 116.427L1031 116.714ZM1049.53 109.781L1052.01 109.494C1052.13 110.527 1052.55 111.257 1053.27 111.683C1053.99 112.097 1054.89 112.242 1055.96 112.118C1056.98 112 1057.71 111.707 1058.15 111.24C1058.59 110.759 1058.78 110.221 1058.71 109.625C1058.61 108.751 1058.15 108.213 1057.34 108.012C1057.02 107.928 1056.66 107.855 1056.26 107.794C1055.88 107.731 1055.35 107.658 1054.67 107.576C1054 107.479 1053.43 107.396 1052.97 107.329C1050.81 107.028 1049.63 105.95 1049.41 104.096C1049.26 102.758 1049.65 101.673 1050.59 100.84C1051.54 99.9918 1052.71 99.4867 1054.12 99.3244C1055.67 99.1452 1057 99.3999 1058.13 100.088C1059.27 100.762 1059.92 101.808 1060.08 103.225L1057.6 103.512C1057.28 101.858 1056.16 101.142 1054.25 101.362C1053.56 101.442 1052.97 101.658 1052.47 102.011C1051.99 102.362 1051.79 102.862 1051.86 103.511C1051.97 104.398 1052.6 104.943 1053.76 105.144C1053.78 105.142 1054.1 105.186 1054.72 105.274C1055.35 105.363 1055.99 105.456 1056.65 105.555C1057.32 105.652 1057.76 105.721 1057.98 105.763C1058.9 105.939 1059.64 106.337 1060.19 106.957C1060.75 107.564 1061.07 108.265 1061.16 109.06C1061.25 109.828 1061.17 110.529 1060.92 111.161C1060.67 111.781 1060.29 112.295 1059.77 112.704C1059.27 113.098 1058.7 113.418 1058.07 113.665C1057.44 113.913 1056.76 114.078 1056.03 114.162C1054.31 114.361 1052.85 114.101 1051.65 113.38C1050.46 112.66 1049.75 111.46 1049.53 109.781ZM1063.81 112.921L1062.17 98.7356L1072.38 97.555L1072.63 99.7008L1064.9 100.594L1065.33 104.309L1072.48 103.483L1072.72 105.509L1065.57 106.336L1066.05 110.488L1073.91 109.579L1074.16 111.725L1063.81 112.921ZM1076.33 111.474L1074.69 97.2889L1080.94 96.5654C1081.9 96.4552 1082.73 96.5001 1083.44 96.7002C1084.14 96.9002 1084.68 97.2203 1085.06 97.6604C1085.44 98.0989 1085.73 98.5423 1085.92 98.9906C1086.1 99.4256 1086.22 99.8948 1086.28 100.398C1086.34 100.901 1086.33 101.393 1086.25 101.871C1086.17 102.337 1085.99 102.821 1085.71 103.323C1085.45 103.823 1084.99 104.251 1084.35 104.608C1083.71 104.964 1082.91 105.197 1081.95 105.307L1078.18 105.744L1078.81 111.187L1076.33 111.474ZM1077.4 99.0283L1077.95 103.717L1081.58 103.297C1082.24 103.22 1082.8 102.968 1083.25 102.541C1083.71 102.112 1083.89 101.487 1083.79 100.665C1083.61 99.1024 1082.71 98.4151 1081.08 98.6034L1077.4 99.0283ZM1086.83 98.0589L1086.59 95.9132L1098.07 94.5857L1098.32 96.7314L1093.81 97.2528L1095.2 109.293L1092.72 109.58L1091.32 97.5398L1086.83 98.0589ZM1101.35 108.581L1099.71 94.3956L1109.93 93.2151L1110.17 95.3608L1102.45 96.2542L1102.87 99.9695L1110.03 99.1426L1110.26 101.169L1103.11 101.996L1103.59 106.148L1111.46 105.239L1111.7 107.385L1101.35 108.581ZM1113.83 107.139L1112.19 92.9535L1115.69 92.5493L1120.88 103.203L1120.92 103.198L1123.45 91.6513L1126.91 91.2517L1128.55 105.437L1126.19 105.71L1124.92 94.7634L1124.88 94.768L1122.21 106.17L1120.17 106.406L1114.97 95.914L1114.93 95.9186L1116.19 106.866L1113.83 107.139ZM1131.52 105.093L1129.88 90.9079L1136.78 90.1109C1138.09 89.9594 1139.15 90.1387 1139.96 90.649C1140.78 91.1578 1141.26 91.9883 1141.4 93.1406C1141.56 94.5711 1141 95.6558 1139.72 96.3948L1139.72 96.4345C1140.61 96.5204 1141.31 96.8552 1141.83 97.4389C1142.37 98.0211 1142.7 98.8023 1142.81 99.7824C1142.95 100.961 1142.62 101.965 1141.83 102.795C1141.05 103.623 1139.79 104.138 1138.04 104.34L1131.52 105.093ZM1133.05 96.5613L1137.11 96.0927C1137.72 96.0223 1138.19 95.7927 1138.54 95.4039C1138.9 95.0136 1139.04 94.5072 1138.97 93.8847C1138.89 93.1959 1138.66 92.7191 1138.28 92.4543C1137.9 92.1895 1137.36 92.0976 1136.65 92.1788L1132.6 92.6473L1133.05 96.5613ZM1133.77 102.78L1138.16 102.272C1138.92 102.185 1139.48 101.926 1139.85 101.494C1140.22 101.048 1140.37 100.467 1140.29 99.7516C1140.21 99.0496 1139.93 98.5377 1139.47 98.2158C1139.01 97.8792 1138.41 97.7545 1137.65 97.8418L1133.26 98.3493L1133.77 102.78ZM1145.51 103.476L1143.87 89.2908L1154.08 88.1103L1154.33 90.256L1146.6 91.1494L1147.03 94.8647L1154.19 94.0378L1154.42 96.0644L1147.27 96.8912L1147.75 101.044L1155.62 100.134L1155.86 102.28L1145.51 103.476ZM1158.03 102.03L1156.39 87.8441L1163.16 87.0609C1164.7 86.8833 1165.9 87.0863 1166.78 87.67C1167.65 88.2404 1168.15 89.1348 1168.29 90.3534C1168.37 90.9892 1168.34 91.5562 1168.21 92.0544C1168.08 92.5527 1167.88 92.9519 1167.6 93.252C1167.33 93.5389 1167.1 93.7468 1166.91 93.8757C1166.74 94.0031 1166.55 94.1114 1166.36 94.2006L1166.37 94.2403C1166.92 94.2438 1167.43 94.4594 1167.91 94.8872C1168.4 95.3003 1168.71 96.0035 1168.82 96.9969C1169.04 98.9307 1169.45 100.146 1170.03 100.642L1167.36 100.95C1167.07 100.569 1166.86 99.8879 1166.75 98.9077C1166.59 97.5435 1166.28 96.5996 1165.81 96.0759C1165.37 95.5508 1164.59 95.3518 1163.49 95.4789L1159.84 95.9015L1160.51 101.743L1158.03 102.03ZM1159.11 89.5835L1159.62 94.014L1163.69 93.5432C1165.31 93.3564 1166.03 92.508 1165.85 90.9981C1165.76 90.1636 1165.46 89.6201 1164.98 89.3676C1164.51 89.1134 1163.89 89.03 1163.14 89.1173L1159.11 89.5835ZM1171.88 100.429L1171.57 97.7465L1174.33 97.4272L1174.64 100.109C1174.72 100.919 1174.55 101.63 1174.12 102.243C1173.71 102.868 1173.11 103.306 1172.32 103.559L1172.18 102.347C1172.59 102.192 1172.89 101.916 1173.07 101.519C1173.25 101.135 1173.31 100.719 1173.25 100.27L1171.88 100.429ZM1182.34 99.2191C1182.11 97.0718 1182.92 95.199 1184.79 93.6004C1185 93.4155 1185.33 93.1217 1185.8 92.7191C1186.27 92.3151 1186.63 91.9917 1186.87 91.7492C1187.13 91.5051 1187.4 91.205 1187.69 90.8488C1188 90.4779 1188.21 90.1044 1188.33 89.7284C1188.45 89.3525 1188.49 88.9584 1188.45 88.5463C1188.38 87.8973 1188.14 87.3476 1187.74 86.8974C1187.34 86.4339 1186.7 86.2526 1185.83 86.3537C1184.3 86.5298 1183.64 87.7806 1183.84 90.1061L1181.58 90.368C1181.39 88.7785 1181.66 87.4389 1182.38 86.3491C1183.12 85.2577 1184.24 84.6247 1185.75 84.4502C1186.55 84.3568 1187.28 84.4139 1187.92 84.6216C1188.56 84.8161 1189.06 85.1135 1189.43 85.5139C1189.81 85.9127 1190.11 86.3421 1190.31 86.8021C1190.52 87.2473 1190.65 87.7149 1190.71 88.205C1190.81 89.0262 1190.68 89.8056 1190.34 90.5434C1190.01 91.2796 1189.56 91.9221 1188.99 92.4709C1188.42 93.0064 1187.84 93.5096 1187.25 93.9805C1186.66 94.4513 1186.13 94.9425 1185.65 95.4541C1185.18 95.9509 1184.91 96.4255 1184.83 96.8779L1191.6 96.0947L1191.84 98.1212L1182.34 99.2191ZM1200.51 96.7363C1199.9 97.2499 1199.11 97.5619 1198.16 97.6721C1197.21 97.7823 1196.37 97.6572 1195.66 97.2967C1194.95 96.9229 1194.38 96.3777 1193.96 95.661C1193.54 94.9443 1193.22 94.2095 1193 93.4566C1192.78 92.7037 1192.62 91.8835 1192.52 90.9961C1192.41 90.1086 1192.38 89.2732 1192.43 88.4896C1192.47 87.7061 1192.62 86.9177 1192.86 86.1245C1193.1 85.3312 1193.53 84.6778 1194.14 84.1641C1194.75 83.6372 1195.53 83.3187 1196.49 83.2084C1197.44 83.0982 1198.28 83.23 1198.99 83.6037C1199.7 83.9643 1200.27 84.5029 1200.69 85.2196C1201.11 85.9363 1201.43 86.6711 1201.65 87.424C1201.87 88.1769 1202.03 88.997 1202.13 89.8845C1202.23 90.7719 1202.26 91.6074 1202.22 92.3909C1202.18 93.1744 1202.03 93.9628 1201.79 94.7561C1201.55 95.5493 1201.12 96.2094 1200.51 96.7363ZM1194.78 90.7342C1195.19 94.2972 1196.25 95.9807 1197.94 95.7847C1199.64 95.5887 1200.28 93.7092 1199.87 90.1463C1199.46 86.5833 1198.4 84.8999 1196.71 85.0959C1195.01 85.2918 1194.37 87.1713 1194.78 90.7342ZM1204.42 96.6667C1204.18 94.5194 1205 92.6466 1206.87 91.048C1207.08 90.8631 1207.41 90.5693 1207.88 90.1668C1208.35 89.7627 1208.71 89.4393 1208.95 89.1968C1209.21 88.9527 1209.48 88.6526 1209.77 88.2964C1210.08 87.9255 1210.29 87.552 1210.41 87.176C1210.53 86.8001 1210.57 86.406 1210.53 85.9939C1210.46 85.3449 1210.22 84.7952 1209.82 84.345C1209.42 83.8815 1208.78 83.7002 1207.91 83.8013C1206.38 83.9774 1205.72 85.2282 1205.92 87.5537L1203.66 87.8156C1203.47 86.2261 1203.74 84.8865 1204.46 83.7967C1205.19 82.7053 1206.32 82.0723 1207.83 81.8978C1208.63 81.8044 1209.36 81.8615 1210 82.0693C1210.64 82.2637 1211.14 82.5611 1211.51 82.9615C1211.89 83.3603 1212.19 83.7897 1212.39 84.2497C1212.6 84.6949 1212.73 85.1625 1212.79 85.6526C1212.89 86.4738 1212.76 87.2532 1212.42 87.991C1212.09 88.7272 1211.64 89.3697 1211.07 89.9185C1210.5 90.454 1209.92 90.9572 1209.33 91.4281C1208.74 91.8989 1208.21 92.3901 1207.73 92.9017C1207.26 93.3985 1206.99 93.8731 1206.91 94.3255L1213.68 93.5423L1213.92 95.5688L1204.42 96.6667ZM1214.77 90.8393L1217.04 90.5775C1217.11 91.4547 1217.41 92.1454 1217.92 92.6497C1218.45 93.1391 1219.14 93.3341 1220 93.2346C1220.78 93.1442 1221.39 92.8522 1221.83 92.3585C1222.28 91.8499 1222.47 91.2116 1222.38 90.4434C1222.32 89.9268 1222.17 89.5144 1221.93 89.2063C1221.69 88.8849 1221.37 88.6735 1220.97 88.5722C1220.58 88.4562 1220.19 88.4005 1219.81 88.4051C1219.42 88.3965 1218.97 88.428 1218.47 88.4994L1218.27 86.8106C1219.14 86.7509 1219.85 86.5143 1220.41 86.101C1220.96 85.6745 1221.19 85.0639 1221.1 84.2692C1221.03 83.6732 1220.77 83.2201 1220.32 82.9099C1219.88 82.5982 1219.34 82.4792 1218.71 82.5526C1217.96 82.6384 1217.42 82.9898 1217.08 83.6068C1216.73 84.2105 1216.62 84.895 1216.73 85.6601L1214.47 85.922C1214.36 84.5384 1214.67 83.3554 1215.38 82.373C1216.12 81.3891 1217.16 80.8183 1218.53 80.6606C1219.71 80.5243 1220.77 80.7368 1221.72 81.298C1222.67 81.846 1223.21 82.7027 1223.35 83.8683C1223.52 85.3915 1222.98 86.4607 1221.73 87.0758L1221.73 87.1156C1222.54 87.1826 1223.2 87.5022 1223.71 88.0742C1224.24 88.6446 1224.55 89.3868 1224.66 90.3007C1224.8 91.5723 1224.44 92.6546 1223.56 93.5479C1222.7 94.4396 1221.58 94.9643 1220.22 95.122C1218.66 95.3027 1217.41 95.0108 1216.47 94.2463C1215.54 93.4686 1214.97 92.3329 1214.77 90.8393Z" fill="#5100BF"/>
<g clip-path="url(#clip6_2238_421)">
<path d="M1261.99 92.5288C1256.24 93.1933 1251.02 89.0549 1250.35 83.3032C1249.69 77.5514 1253.83 72.332 1259.58 71.6675C1265.33 71.0031 1270.55 75.1414 1271.22 80.8931C1271.88 86.6449 1267.74 91.8643 1261.99 92.5288ZM1259.75 73.1576C1254.82 73.7274 1251.27 78.1988 1251.84 83.131C1252.41 88.0632 1256.89 91.6085 1261.82 91.0387C1266.75 90.4689 1270.3 85.9975 1269.73 81.0653C1269.16 76.1331 1264.68 72.5878 1259.75 73.1576Z" fill="#5100BF"/>
<path d="M1264.2 85.4792C1264.06 85.4947 1263.92 85.4804 1263.8 85.4196L1259.81 83.6149C1259.69 83.5613 1259.59 83.4778 1259.52 83.3727C1259.44 83.2675 1259.39 83.1443 1259.38 83.0155L1258.69 77.0551C1258.64 76.6379 1258.93 76.2722 1259.35 76.224C1259.77 76.1758 1260.13 76.4657 1260.18 76.883L1260.82 82.4261L1264.42 84.0487C1264.57 84.1176 1264.69 84.2332 1264.77 84.3777C1264.85 84.5223 1264.88 84.688 1264.85 84.8498C1264.82 85.0115 1264.75 85.1604 1264.63 85.274C1264.51 85.3876 1264.36 85.4596 1264.2 85.4792Z" fill="#5100BF"/>
</g>
<path d="M1286.19 87.2135L1285.06 77.3989L1281.64 77.7939L1281.43 76.0058C1282.48 75.8849 1283.36 75.5953 1284.07 75.1372C1284.78 74.6791 1285.17 74.0442 1285.22 73.2327L1287.07 73.0191L1288.68 86.9265L1286.19 87.2135ZM1293.54 86.3645C1293.3 84.2173 1294.12 82.3444 1295.99 80.7459C1296.19 80.5609 1296.53 80.2672 1296.99 79.8646C1297.47 79.4605 1297.83 79.1372 1298.07 78.8947C1298.32 78.6506 1298.6 78.3505 1298.89 77.9943C1299.2 77.6234 1299.41 77.2499 1299.53 76.8739C1299.64 76.4979 1299.69 76.1039 1299.65 75.6917C1299.58 75.0427 1299.34 74.4931 1298.94 74.0428C1298.53 73.5793 1297.9 73.3981 1297.02 73.4991C1295.5 73.6752 1294.84 74.926 1295.04 77.2516L1292.77 77.5134C1292.59 75.924 1292.86 74.5844 1293.58 73.4945C1294.31 72.4031 1295.43 71.7702 1296.94 71.5956C1297.75 71.5022 1298.48 71.5594 1299.12 71.7671C1299.76 71.9616 1300.26 72.259 1300.63 72.6593C1301.01 73.0581 1301.3 73.4875 1301.5 73.9475C1301.72 74.3927 1301.85 74.8604 1301.91 75.3504C1302 76.1716 1301.88 76.9511 1301.53 77.6888C1301.2 78.4251 1300.75 79.0676 1300.19 79.6163C1299.62 80.1519 1299.04 80.6551 1298.45 81.1259C1297.86 81.5968 1297.32 82.088 1296.85 82.5996C1296.38 83.0964 1296.11 83.571 1296.02 84.0234L1302.8 83.2402L1303.03 85.2667L1293.54 86.3645ZM1304.32 77.6485L1304.01 74.9664L1306.77 74.6471L1307.08 77.3293L1304.32 77.6485ZM1305.17 85.0194L1304.86 82.3373L1307.62 82.018L1307.93 84.7002L1305.17 85.0194ZM1317.23 83.2425C1316.62 83.7562 1315.84 84.0681 1314.89 84.1783C1313.93 84.2886 1313.1 84.1634 1312.39 83.8029C1311.67 83.4291 1311.11 82.8839 1310.69 82.1672C1310.27 81.4505 1309.95 80.7157 1309.73 79.9628C1309.51 79.2099 1309.34 78.3897 1309.24 77.5023C1309.14 76.6149 1309.11 75.7794 1309.15 74.9959C1309.2 74.2124 1309.34 73.424 1309.58 72.6307C1309.83 71.8375 1310.26 71.184 1310.87 70.6704C1311.48 70.1435 1312.26 69.8249 1313.21 69.7147C1314.17 69.6044 1315 69.7362 1315.72 70.11C1316.43 70.4705 1316.99 71.0091 1317.41 71.7258C1317.83 72.4425 1318.15 73.1773 1318.37 73.9302C1318.59 74.6831 1318.76 75.5033 1318.86 76.3907C1318.96 77.2781 1318.99 78.1136 1318.95 78.8971C1318.9 79.6807 1318.76 80.469 1318.52 81.2623C1318.27 82.0555 1317.84 82.7156 1317.23 83.2425ZM1311.51 77.2405C1311.92 80.8034 1312.97 82.4869 1314.67 82.2909C1316.36 82.0949 1317 80.2155 1316.59 76.6525C1316.18 73.0896 1315.13 71.4061 1313.43 71.6021C1311.74 71.7981 1311.1 73.6775 1311.51 77.2405ZM1328.27 81.9663C1327.66 82.48 1326.88 82.7919 1325.93 82.9021C1324.97 83.0124 1324.14 82.8872 1323.43 82.5267C1322.71 82.1529 1322.15 81.6077 1321.73 80.891C1321.31 80.1743 1320.99 79.4395 1320.77 78.6866C1320.55 77.9337 1320.38 77.1135 1320.28 76.2261C1320.18 75.3387 1320.15 74.5032 1320.19 73.7197C1320.24 72.9362 1320.38 72.1478 1320.62 71.3545C1320.87 70.5613 1321.3 69.9078 1321.91 69.3942C1322.52 68.8673 1323.3 68.5487 1324.25 68.4385C1325.21 68.3282 1326.04 68.46 1326.76 68.8338C1327.47 69.1943 1328.03 69.7329 1328.45 70.4496C1328.87 71.1663 1329.19 71.9011 1329.41 72.654C1329.63 73.4069 1329.8 74.2271 1329.9 75.1145C1330 76.0019 1330.03 76.8374 1329.99 77.6209C1329.94 78.4045 1329.8 79.1928 1329.55 79.9861C1329.31 80.7793 1328.88 81.4394 1328.27 81.9663ZM1322.55 75.9643C1322.96 79.5272 1324.01 81.2107 1325.71 81.0147C1327.4 80.8187 1328.04 78.9393 1327.63 75.3763C1327.22 71.8134 1326.17 70.1299 1324.47 70.3259C1322.78 70.5219 1322.13 72.4013 1322.55 75.9643ZM1338.45 81.1725L1336.81 66.987L1343.07 66.2635C1344.02 66.1533 1344.85 66.1982 1345.56 66.3982C1346.27 66.5983 1346.81 66.9184 1347.18 67.3584C1347.57 67.797 1347.85 68.2404 1348.04 68.6887C1348.22 69.1237 1348.35 69.5929 1348.4 70.0962C1348.46 70.5995 1348.45 71.0906 1348.37 71.5695C1348.29 72.0351 1348.11 72.5189 1347.84 73.0207C1347.57 73.5211 1347.12 73.9493 1346.47 74.3056C1345.83 74.6618 1345.03 74.8951 1344.08 75.0053L1340.3 75.4417L1340.93 80.8854L1338.45 81.1725ZM1339.53 68.7264L1340.07 73.4152L1343.71 72.9949C1344.37 72.9183 1344.92 72.6663 1345.37 72.2388C1345.83 71.8097 1346.01 71.1846 1345.92 70.3634C1345.74 68.8005 1344.83 68.1132 1343.2 68.3015L1339.53 68.7264ZM1351.66 79.6452L1350.02 65.4597L1353.52 65.0555L1358.72 75.7091L1358.76 75.7045L1361.29 64.1574L1364.74 63.7578L1366.38 77.9434L1364.02 78.2167L1362.75 67.2696L1362.71 67.2742L1360.05 78.676L1358 78.9126L1352.8 68.4202L1352.76 68.4248L1354.03 79.3719L1351.66 79.6452Z" fill="#5100BF"/>
<path d="M1403.01 67.1668C1402.28 67.2519 1401.53 67.1167 1400.87 66.7781C1400.21 66.4395 1399.67 65.9129 1399.31 65.2648C1398.94 64.6167 1398.78 63.8762 1398.84 63.1369C1398.9 62.3977 1399.18 61.6929 1399.64 61.1118C1400.1 60.5306 1400.73 60.0991 1401.43 59.8719C1402.14 59.6447 1402.9 59.6319 1403.61 59.8352C1404.32 60.0386 1404.96 60.4488 1405.44 61.0141C1405.92 61.5795 1406.22 62.2744 1406.31 63.0112C1406.42 63.999 1406.14 64.9912 1405.52 65.7703C1404.9 66.5493 1404 67.0515 1403.01 67.1668ZM1402.32 61.2065C1401.88 61.2575 1401.47 61.4385 1401.13 61.7266C1400.79 62.0147 1400.54 62.3968 1400.42 62.8248C1400.3 63.2528 1400.3 63.7073 1400.44 64.1309C1400.58 64.5545 1400.84 64.9282 1401.18 65.2047C1401.53 65.4811 1401.96 65.648 1402.4 65.6842C1402.84 65.7203 1403.29 65.6241 1403.68 65.4078C1404.07 65.1914 1404.38 64.8646 1404.58 64.4687C1404.79 64.0727 1404.87 63.6254 1404.82 63.1834C1404.75 62.5908 1404.45 62.0499 1403.98 61.6793C1403.51 61.3086 1402.92 61.1386 1402.32 61.2065Z" fill="#5100BF"/>
<path d="M1404.05 76.1073L1396.9 69.421C1396.8 69.3198 1396.7 69.2177 1396.61 69.1149C1395.37 67.8247 1394.59 66.1643 1394.39 64.3884C1394.14 62.2148 1394.76 60.0305 1396.12 58.316C1397.48 56.6015 1399.46 55.4972 1401.64 55.2461C1403.81 54.995 1405.99 55.6176 1407.71 56.977C1409.42 58.3364 1410.53 60.3212 1410.78 62.4948C1410.99 64.2693 1410.61 66.0629 1409.7 67.6005L1409.7 67.6028C1409.7 67.6028 1409.51 67.9222 1409.48 67.9655L1404.05 76.1073ZM1397.69 68.0798C1397.69 68.0796 1397.89 68.2891 1397.94 68.3337L1403.78 73.8036L1408.23 67.1368C1408.25 67.092 1408.4 66.8409 1408.4 66.8401C1409.15 65.5833 1409.46 64.1173 1409.29 62.6669C1409.08 60.8885 1408.18 59.2646 1406.78 58.1524C1405.37 57.0401 1403.59 56.5307 1401.81 56.7362C1400.03 56.9416 1398.41 57.8451 1397.29 59.2479C1396.18 60.6507 1395.67 62.4378 1395.88 64.2162C1396.04 65.6679 1396.68 67.0252 1397.69 68.0798Z" fill="#5100BF"/>
<path d="M1425.47 71.1128L1423.83 56.9273L1426.32 56.6402L1427.71 68.68L1434.92 67.8463L1435.17 69.992L1425.47 71.1128ZM1436.88 69.794L1435.24 55.6085L1445.45 54.428L1445.7 56.5737L1437.97 57.4671L1438.4 61.1823L1445.55 60.3555L1445.79 62.382L1438.64 63.2089L1439.12 67.3612L1446.98 66.4517L1447.23 68.5974L1436.88 69.794ZM1449.39 68.3473L1447.75 54.1618L1450.24 53.8747L1450.98 60.3317L1456.56 53.1444L1459.62 52.7907L1454.61 59.1075L1461.65 66.9303L1458.55 67.2886L1453.12 61.0511L1451.33 63.292L1451.88 68.0603L1449.39 68.3473ZM1462.99 66.7751L1461.36 52.5895L1463.84 52.3025L1464.59 58.7595L1470.16 51.5721L1473.22 51.2184L1468.21 57.5353L1475.25 65.358L1472.15 65.7163L1466.72 59.4788L1464.93 61.7197L1465.48 66.488L1462.99 66.7751ZM1476.6 65.2028L1474.96 51.0173L1477.44 50.7302L1479.08 64.9157L1476.6 65.2028ZM1481.99 64.5797L1481.68 61.8975L1484.44 61.5783L1484.75 64.2604C1484.83 65.0699 1484.66 65.7811 1484.23 66.3941C1483.82 67.0187 1483.22 67.4572 1482.43 67.7096L1482.29 66.4977C1482.7 66.3427 1483 66.0668 1483.18 65.6699C1483.36 65.2862 1483.42 64.87 1483.36 64.4212L1481.99 64.5797ZM1493.18 63.2852L1491.54 49.0996L1494.03 48.8125L1495.42 60.8524L1502.63 60.0187L1502.88 62.1644L1493.18 63.2852ZM1502.94 62.157L1506.75 47.3421L1509.39 47.0367L1516.49 60.5906L1513.83 60.8984L1512.07 57.2973L1506.4 57.9518L1505.51 61.8607L1502.94 62.157ZM1506.86 55.9863L1511.19 55.4856L1508.36 49.632L1508.3 49.6389L1506.86 55.9863ZM1516.37 53.4175C1516.13 51.3248 1516.54 49.492 1517.61 47.9191C1518.69 46.3447 1520.25 45.4388 1522.3 45.2015C1523.91 45.0162 1525.32 45.2824 1526.54 45.9999C1527.78 46.7159 1528.58 47.8314 1528.94 49.3464L1526.52 49.6266C1526.3 48.753 1525.82 48.1109 1525.07 47.7005C1524.32 47.2768 1523.48 47.1193 1522.54 47.228C1521.12 47.3918 1520.11 48.0457 1519.5 49.1895C1518.9 50.3201 1518.68 51.6337 1518.85 53.1304C1519.03 54.6271 1519.54 55.8631 1520.39 56.8385C1521.24 57.8007 1522.37 58.1998 1523.79 58.036C1525.05 57.917 1525.98 57.4741 1526.57 56.7073C1527.18 55.9257 1527.43 54.9175 1527.31 53.6826L1523.54 54.119L1523.32 52.2316L1529.36 51.5334L1530.22 59.0036L1528.63 59.1873L1528.06 57.5621C1527.5 58.3788 1526.9 58.9778 1526.28 59.359C1525.66 59.7254 1524.91 59.9599 1524.02 60.0625C1521.97 60.2998 1520.24 59.7819 1518.83 58.5086C1517.43 57.2205 1516.61 55.5235 1516.37 53.4175ZM1532.58 46.1878C1533.66 44.6134 1535.23 43.7076 1537.28 43.4703C1539.33 43.2329 1541.06 43.7583 1542.46 45.0464C1543.87 46.3329 1544.69 48.0226 1544.93 50.1153C1545.18 52.2213 1544.76 54.0615 1543.68 55.6359C1542.61 57.1955 1541.05 58.094 1539 58.3313C1536.95 58.5686 1535.21 58.0506 1533.81 56.7773C1532.41 55.4892 1531.59 53.7922 1531.35 51.6862C1531.1 49.5935 1531.52 47.7607 1532.58 46.1878ZM1540.92 46.7141C1540.07 45.7387 1538.93 45.3329 1537.52 45.4968C1536.1 45.6606 1535.09 46.3144 1534.48 47.4582C1533.87 48.5888 1533.66 49.9025 1533.83 51.3992C1534 52.8959 1534.51 54.1319 1535.36 55.1073C1536.21 56.0695 1537.35 56.4686 1538.76 56.3048C1540.18 56.141 1541.19 55.4937 1541.8 54.3632C1542.41 53.2193 1542.62 51.8991 1542.45 50.4024C1542.28 48.9057 1541.77 47.6763 1540.92 46.7141ZM1546.61 52.317L1549.1 52.0299C1549.22 53.0631 1549.64 53.793 1550.36 54.2197C1551.08 54.6333 1551.97 54.778 1553.04 54.654C1554.06 54.5361 1554.8 54.2435 1555.24 53.7763C1555.68 53.2958 1555.87 52.7575 1555.8 52.1615C1555.7 51.2873 1555.24 50.7497 1554.42 50.5486C1554.1 50.4646 1553.75 50.3919 1553.35 50.3303C1552.97 50.2672 1552.44 50.1945 1551.75 50.1121C1551.09 50.0149 1550.52 49.9328 1550.06 49.8656C1547.9 49.5645 1546.71 48.4868 1546.5 46.6325C1546.35 45.2947 1546.74 44.2092 1547.67 43.3761C1548.62 42.5282 1549.8 42.0231 1551.2 41.8608C1552.75 41.6817 1554.09 41.9363 1555.22 42.6249C1556.36 43.2986 1557.01 44.3441 1557.17 45.7613L1554.69 46.0484C1554.36 44.3948 1553.25 43.6783 1551.34 43.8988C1550.65 43.9784 1550.06 44.1945 1549.56 44.5472C1549.08 44.8983 1548.87 45.3983 1548.95 46.0474C1549.05 46.9348 1549.69 47.479 1550.85 47.68C1550.86 47.6784 1551.18 47.7219 1551.81 47.8104C1552.44 47.8989 1553.08 47.9925 1553.74 48.0912C1554.4 48.1884 1554.85 48.2578 1555.07 48.2996C1555.99 48.4751 1556.73 48.8731 1557.28 49.4935C1557.83 50.1006 1558.16 50.8015 1558.25 51.5962C1558.34 52.3645 1558.26 53.0649 1558.01 53.6977C1557.76 54.3173 1557.37 54.8314 1556.86 55.24C1556.35 55.634 1555.79 55.9545 1555.16 56.2017C1554.53 56.4489 1553.85 56.6147 1553.12 56.6989C1551.4 56.8979 1549.94 56.6371 1548.74 55.9165C1547.54 55.1959 1546.83 53.9961 1546.61 52.317Z" fill="#5100BF"/>
</g>
<defs>
<clipPath id="clip0_2238_421">
<rect width="1748.71" height="57" fill="white" transform="translate(-10 200.814) rotate(-6.59414)"/>
</clipPath>
<clipPath id="clip1_2238_421">
<rect width="24" height="24" fill="white" transform="translate(7.7334 214.871) rotate(-6.59)"/>
</clipPath>
<clipPath id="clip2_2238_421">
<rect width="24" height="24" fill="white" transform="translate(341.514 176.286) rotate(-6.59)"/>
</clipPath>
<clipPath id="clip3_2238_421">
<rect width="24" height="24" fill="white" transform="translate(627.61 143.213) rotate(-6.59)"/>
</clipPath>
<clipPath id="clip4_2238_421">
<rect width="24" height="24" fill="white" transform="translate(769.666 126.791) rotate(-6.59)"/>
</clipPath>
<clipPath id="clip5_2238_421">
<rect width="24" height="24" fill="white" transform="translate(961.392 104.628) rotate(-6.59)"/>
</clipPath>
<clipPath id="clip6_2238_421">
<rect width="24" height="24" fill="white" transform="translate(1247.49 71.5547) rotate(-6.59)"/>
</clipPath>
</defs>
</svg>
