<svg width="212" height="22" viewBox="0 0 212 22" fill="none" xmlns="http://www.w3.org/2000/svg">
<path d="M19.2118 20.0259C19.4323 20.146 19.6929 20.2562 19.9935 20.3563C20.2942 20.4364 20.5848 20.4965 20.8654 20.5366V21.0473H12.7477V20.5366C13.4894 20.4765 14.0606 20.3864 14.4615 20.2662C14.5817 20.2262 14.7722 20.146 15.0327 20.0259C15.2933 19.9057 15.4236 19.7054 15.4236 19.4251C15.4236 19.405 15.4136 19.3149 15.3935 19.1547C15.3935 18.9745 15.3634 18.8142 15.3033 18.674L13.4994 13.8375H5.77257L5.71243 14.0177C5.49195 14.5985 5.29152 15.1493 5.11113 15.67C4.93073 16.1907 4.76036 16.7114 4.60001 17.2321C4.35949 18.0732 4.23923 18.654 4.23923 18.9745C4.23923 19.1547 4.30938 19.355 4.44969 19.5753C4.58999 19.7956 4.89065 19.9858 5.35165 20.146C5.6523 20.2662 5.973 20.3563 6.31374 20.4164C6.65449 20.4565 6.96516 20.4965 7.24577 20.5366V21.0473H0V20.5366C0.280611 20.4965 0.581265 20.4364 0.901963 20.3563C1.2427 20.2562 1.52332 20.126 1.7438 19.9658C2.2048 19.6854 2.54554 19.385 2.76602 19.0646C2.9865 18.7441 3.19696 18.3336 3.3974 17.8329L6.85492 9.00089L10.1621 0.499325H10.9438L17.8288 18.2535C17.9892 18.674 18.1695 19.0145 18.37 19.2749C18.5905 19.5152 18.8611 19.7655 19.1818 20.0259H19.2118ZM13.1987 13.1165L9.62094 3.95402L6.10329 13.1165H13.1987Z" fill="#131313"/>
<path d="M36.3761 19.0345C37.2981 18.2334 38.0197 17.202 38.5408 15.9403L39.1121 16.2107C38.3304 18.0532 37.2981 19.395 36.0154 20.2362C34.7526 21.0773 33.1391 21.4979 31.1748 21.4979C29.9522 21.4979 28.7996 21.2676 27.7173 20.8069C26.6349 20.3463 25.6528 19.6654 24.7709 18.7642C23.8489 17.7828 23.1473 16.6513 22.6663 15.3696C22.2053 14.0678 21.9748 12.6559 21.9748 11.1338C21.9748 9.55164 22.2153 8.09966 22.6964 6.77787C23.1774 5.45607 23.8789 4.29449 24.8009 3.29313C25.7029 2.33182 26.7351 1.60082 27.8977 1.10014C29.0602 0.599461 30.3029 0.349121 31.6258 0.349121C32.5678 0.349121 33.4397 0.459271 34.2415 0.67957C35.0432 0.899869 35.845 1.26036 36.6467 1.76104L36.8872 1.91125L37.5487 0.799734H38.3003L38.4206 7.64905H37.7291C37.5687 6.98815 37.3382 6.25716 37.0376 5.45607C36.7369 4.63495 36.3661 3.90396 35.9252 3.26308C34.8628 1.76104 33.4898 1.01002 31.8062 1.01002C30.784 1.01002 29.8419 1.23032 28.98 1.67092C28.1382 2.11152 27.4066 2.77242 26.7853 3.65361C26.224 4.4547 25.7731 5.48611 25.4323 6.74782C25.0916 8.04959 24.9212 9.44149 24.9212 10.9235C24.9212 13.6272 25.5927 15.8802 26.9356 17.6827C28.2986 19.5252 30.0724 20.4465 32.2572 20.4465C33.0188 20.4465 33.7504 20.3263 34.4519 20.086C35.1735 19.8456 35.8149 19.4952 36.3761 19.0345Z" fill="#131313"/>
<path d="M58.6727 20.0259C58.8932 20.146 59.1538 20.2562 59.4544 20.3563C59.7551 20.4364 60.0457 20.4965 60.3263 20.5366V21.0473H52.2086V20.5366C52.9503 20.4765 53.5215 20.3864 53.9224 20.2662C54.0426 20.2262 54.2331 20.146 54.4936 20.0259C54.7542 19.9057 54.8845 19.7054 54.8845 19.4251C54.8845 19.405 54.8744 19.3149 54.8544 19.1547C54.8544 18.9745 54.8243 18.8142 54.7642 18.674L52.9603 13.8375H45.2335L45.1733 14.0177C44.9529 14.5985 44.7524 15.1493 44.572 15.67C44.3916 16.1907 44.2213 16.7114 44.0609 17.2321C43.8204 18.0732 43.7001 18.654 43.7001 18.9745C43.7001 19.1547 43.7703 19.355 43.9106 19.5753C44.0509 19.7956 44.3515 19.9858 44.8125 20.146C45.1132 20.2662 45.4339 20.3563 45.7746 20.4164C46.1154 20.4565 46.4261 20.4965 46.7067 20.5366V21.0473H39.4609V20.5366C39.7415 20.4965 40.0422 20.4364 40.3629 20.3563C40.7036 20.2562 40.9842 20.126 41.2047 19.9658C41.6657 19.6854 42.0064 19.385 42.2269 19.0646C42.4474 18.7441 42.6579 18.3336 42.8583 17.8329L46.3158 9.00089L49.623 0.499325H50.4047L57.2897 18.2535C57.4501 18.674 57.6304 19.0145 57.8309 19.2749C58.0514 19.5152 58.322 19.7655 58.6427 20.0259H58.6727ZM52.6596 13.1165L49.0818 3.95402L45.5642 13.1165H52.6596Z" fill="#131313"/>
<path d="M77.4906 2.87255C80.0161 4.73509 81.2789 7.45879 81.2789 11.0437C81.2789 12.6458 80.9882 14.0878 80.407 15.3696C79.8257 16.6313 78.9638 17.7127 77.8213 18.614C76.7991 19.4151 75.6366 20.0259 74.3338 20.4465C73.051 20.847 71.678 21.0473 70.2148 21.0473H61.8566V20.5366C62.1572 20.5366 62.498 20.5166 62.8788 20.4765C63.2797 20.4364 63.5603 20.3764 63.7207 20.2963C64.3821 19.9758 64.7128 19.395 64.7128 18.5539V3.53345C64.7128 2.67228 64.3821 2.08148 63.7207 1.76104V1.731C63.44 1.61084 63.1494 1.52071 62.8488 1.46063C62.5481 1.38052 62.2575 1.32044 61.9769 1.28039V0.799734H70.8161C72.0187 0.799734 73.2013 0.979979 74.3638 1.34047C75.5464 1.70096 76.5887 2.21165 77.4906 2.87255ZM76.4985 17.8029C77.1198 16.9217 77.5708 15.9403 77.8514 14.8589C78.132 13.7774 78.2723 12.4956 78.2723 11.0136C78.2723 9.59169 78.0919 8.30995 77.7311 7.1684C77.3303 6.00682 76.759 4.98543 76.0174 4.10423C75.2758 3.22303 74.3939 2.56213 73.3717 2.12153C72.3494 1.6609 71.237 1.43059 70.0344 1.43059C69.6335 1.43059 69.1825 1.4406 68.6814 1.46063C68.1804 1.46063 67.7995 1.47065 67.539 1.49067H67.2684V17.7428C67.2684 18.7241 67.569 19.4251 68.1703 19.8456C68.6915 20.2262 69.5433 20.4164 70.7259 20.4164C71.9686 20.4164 73.1011 20.1861 74.1233 19.7255C74.5843 19.5052 75.0152 19.2348 75.4161 18.9144C75.817 18.5939 76.1778 18.2234 76.4985 17.8029Z" fill="#131313"/>
<path d="M101.363 20.0259C101.584 20.146 101.844 20.2562 102.145 20.3563C102.446 20.4364 102.736 20.4965 103.017 20.5366V21.0473H94.8992V20.5366C95.6408 20.4765 96.2121 20.3864 96.613 20.2662C96.7332 20.2262 96.9236 20.146 97.1842 20.0259C97.4448 19.9057 97.5751 19.7054 97.5751 19.4251C97.5751 19.405 97.565 19.3149 97.545 19.1547C97.545 18.9745 97.5149 18.8142 97.4548 18.674L95.6509 13.8375H87.924L87.8639 14.0177C87.6434 14.5985 87.443 15.1493 87.2626 15.67C87.0822 16.1907 86.9118 16.7114 86.7515 17.2321C86.511 18.0732 86.3907 18.654 86.3907 18.9745C86.3907 19.1547 86.4609 19.355 86.6012 19.5753C86.7415 19.7956 87.0421 19.9858 87.5031 20.146C87.8038 20.2662 88.1245 20.3563 88.4652 20.4164C88.806 20.4565 89.1166 20.4965 89.3972 20.5366V21.0473H82.1515V20.5366C82.4321 20.4965 82.7327 20.4364 83.0534 20.3563C83.3942 20.2562 83.6748 20.126 83.8953 19.9658C84.3563 19.6854 84.697 19.385 84.9175 19.0646C85.138 18.7441 85.3484 18.3336 85.5489 17.8329L89.0064 9.00089L92.3136 0.499325H93.0953L99.9803 18.2535C100.141 18.674 100.321 19.0145 100.521 19.2749C100.742 19.5152 101.013 19.7655 101.333 20.0259H101.363ZM95.3502 13.1165L91.7724 3.95402L88.2548 13.1165H95.3502Z" fill="#131313"/>
<path d="M128.269 2.84251C128.269 2.56213 128.179 2.33182 127.998 2.15157C127.818 1.9513 127.587 1.79108 127.307 1.67092C127.046 1.55076 126.735 1.47065 126.375 1.43059C126.034 1.37051 125.703 1.32044 125.383 1.28039V0.799734H132.358V1.28039C132.137 1.32044 131.887 1.39054 131.606 1.49067C131.325 1.59081 131.045 1.72099 130.764 1.88121C130.363 2.14156 130.053 2.42194 129.832 2.72235C129.612 3.00273 129.421 3.40328 129.261 3.92398C128.479 6.56758 127.627 9.38141 126.705 12.3655C125.803 15.3295 124.881 18.3035 123.939 21.2876H123.007L117.535 4.675L111.853 21.2876H110.981C110.5 19.6454 110.019 17.9831 109.538 16.3008C109.077 14.6185 108.586 12.8762 108.065 11.0737L108.005 10.8334L105.93 3.47337C105.79 2.79244 105.389 2.24169 104.728 1.82112C104.507 1.66091 104.247 1.54074 103.946 1.46063C103.665 1.38052 103.395 1.32044 103.134 1.28039V0.799734H111.041V1.28039C110.761 1.30041 110.47 1.33046 110.169 1.37051C109.869 1.39054 109.598 1.43059 109.358 1.49067C109.298 1.5107 109.207 1.54074 109.087 1.5808C108.987 1.60082 108.877 1.64088 108.756 1.70096C108.636 1.76104 108.536 1.84115 108.456 1.94129C108.376 2.04142 108.335 2.16159 108.335 2.30178C108.335 2.40191 108.345 2.50205 108.365 2.60219C108.386 2.68229 108.406 2.77242 108.426 2.87255C108.446 2.91261 108.456 2.95266 108.456 2.99272C108.456 3.03277 108.466 3.07283 108.486 3.11288V3.14292L109.688 7.43876C109.789 7.81928 109.899 8.21983 110.019 8.6404C110.139 9.06097 110.28 9.53161 110.44 10.0523C110.681 10.8935 110.951 11.8347 111.252 12.8762C111.572 13.9176 111.903 15.0691 112.244 16.3309L112.484 17.202L117.926 1.10014H118.949L124.42 17.5325L124.661 16.6613C125.062 15.2794 125.423 14.0377 125.743 12.9362C126.064 11.8347 126.345 10.8434 126.585 9.9622C126.826 9.06097 127.036 8.25988 127.217 7.55893C127.417 6.85797 127.587 6.2171 127.728 5.63631C127.848 5.19571 127.938 4.82521 127.998 4.5248C128.078 4.22439 128.139 3.97405 128.179 3.77378C128.219 3.55348 128.239 3.37323 128.239 3.23304C128.259 3.09285 128.269 2.96268 128.269 2.84251Z" fill="#131313"/>
<path d="M144.011 22C150.091 22 155.02 17.0751 155.02 11C155.02 4.92487 150.091 0 144.011 0C137.931 0 133.002 4.92487 133.002 11C133.002 17.0751 137.931 22 144.011 22Z" fill="#0000FF"/>
<path fill-rule="evenodd" clip-rule="evenodd" d="M137.475 9.2611L138.899 9.96983C138.884 10.7746 138.825 12.3085 138.665 13.0304C138.481 13.8591 137.389 14.7557 137.289 15.0588C137.938 15.06 138.156 14.7605 138.594 14.6381C138.922 14.9147 138.836 15.33 139.13 15.4974C139.719 15.3216 139.577 13.5705 139.532 13.1024C139.441 12.1782 139.535 11.2499 139.573 10.3287C139.836 10.3881 143.258 12.0798 143.777 12.3361C144.312 12.5995 144.129 12.5767 145.186 12.0426C146.103 11.5793 147.013 11.131 147.944 10.6702C148.393 10.4475 150.493 9.43813 150.734 9.2611L147.464 7.84784C147.018 7.66481 144.338 6.47299 144.141 6.503C143.913 6.5378 137.568 9.18549 137.475 9.2611Z" fill="white"/>
<path fill-rule="evenodd" clip-rule="evenodd" d="M140.676 12.7446C140.807 12.9468 143.744 14.5899 144.172 14.8311L145.895 13.8224C146.42 13.5121 147.131 13.131 147.596 12.8028L147.597 11.2461C147.059 11.4219 144.4 12.9564 144.182 12.942C143.868 12.9216 141.249 11.4249 140.677 11.2383V12.7446H140.676Z" fill="white"/>
<path d="M173.643 20.146C173.864 20.2462 174.134 20.3363 174.455 20.4164C174.796 20.4765 175.107 20.5166 175.387 20.5366V21.0473H170.216C169.214 19.4451 168.121 17.8029 166.939 16.1206C166.478 15.4597 165.997 14.7988 165.496 14.1379C164.994 13.477 164.473 12.7961 163.932 12.0951L163.571 11.6144H161.016V18.4938C161.016 18.8543 161.076 19.2048 161.196 19.5452C161.316 19.8657 161.607 20.106 162.068 20.2662C162.249 20.3263 162.519 20.3864 162.88 20.4465C163.261 20.4865 163.601 20.5166 163.902 20.5366V21.0473H155.664V20.5366C155.945 20.5166 156.265 20.4865 156.626 20.4465C157.007 20.3864 157.278 20.3263 157.438 20.2662H157.468C158.13 19.9458 158.46 19.355 158.46 18.4938V3.44333C158.46 3.10287 158.4 2.7624 158.28 2.42194C158.18 2.06145 157.899 1.8011 157.438 1.64088C157.218 1.5808 156.937 1.52071 156.596 1.46063C156.276 1.38052 155.965 1.32044 155.664 1.28039V0.799734H165.015C166.859 0.799734 168.332 1.16022 169.434 1.88121C170.657 2.72235 171.268 3.91397 171.268 5.45607C171.268 6.99816 170.827 8.16976 169.945 8.97085H169.915C169.134 9.75191 167.961 10.3627 166.398 10.8033L166.007 10.9235L166.247 11.254C166.728 11.8748 167.159 12.4456 167.54 12.9663C167.941 13.487 168.312 13.9676 168.652 14.4082L168.833 14.6786L171.328 18.0732C171.749 18.654 172.14 19.0946 172.501 19.395C172.862 19.6754 173.242 19.9157 173.643 20.116V20.146ZM163.241 10.9235C163.942 10.9235 164.594 10.8033 165.195 10.563C165.816 10.3227 166.347 9.98222 166.788 9.54162C167.75 8.62037 168.232 7.36867 168.232 5.78652C168.232 4.42466 167.851 3.36322 167.089 2.60219C166.307 1.82112 165.215 1.43059 163.812 1.43059H161.016V10.9235H163.241Z" fill="#131313"/>
<path d="M194.633 20.146C194.854 20.2462 195.125 20.3363 195.445 20.4164C195.786 20.4765 196.087 20.5166 196.347 20.5366V21.0473H190.965C188.801 17.7228 186.125 14.3582 182.938 10.9535L182.848 10.8634L182.818 10.7733C184.562 9.37139 186.215 7.77923 187.779 5.9968C188.58 5.07555 189.162 4.34455 189.522 3.80382C189.883 3.24306 190.064 2.73236 190.064 2.27174C190.064 2.01138 189.933 1.82112 189.673 1.70096C189.432 1.5808 189.192 1.49067 188.951 1.43059C188.49 1.33045 188.139 1.28039 187.899 1.28039V0.799734H195.145V1.28039C195.104 1.28039 195.064 1.2904 195.024 1.31043C195.004 1.31043 194.974 1.31043 194.934 1.31043H194.904C194.804 1.31043 194.704 1.32044 194.603 1.34047C194.503 1.3605 194.383 1.38052 194.243 1.40055C194.182 1.42058 194.072 1.45062 193.912 1.49067C193.511 1.59081 193.12 1.731 192.739 1.91125C192.359 2.09149 192.048 2.30178 191.807 2.5421V2.57214C191.587 2.79244 191.366 3.03277 191.146 3.29313C190.945 3.53345 190.735 3.76376 190.514 3.98407C189.673 4.94537 188.821 5.89667 187.959 6.83795C187.117 7.7592 186.265 8.63039 185.403 9.4515L185.223 9.63175L185.403 9.84203C186.265 10.8434 186.977 11.6845 187.538 12.3655C188.119 13.0464 188.62 13.6572 189.041 14.198H189.071C189.613 14.8589 190.134 15.5097 190.635 16.1506C191.156 16.7915 191.677 17.4324 192.198 18.0732C192.86 18.9144 193.661 19.5953 194.603 20.116L194.633 20.146ZM183.118 1.64088C182.417 1.86118 182.066 2.44197 182.066 3.38325V18.3736C182.066 19.1948 182.407 19.7755 183.088 20.116V20.146H183.118C183.259 20.1861 183.499 20.2562 183.84 20.3563C184.201 20.4364 184.531 20.4965 184.832 20.5366V21.0473H176.775V20.5366C177.055 20.5166 177.376 20.4965 177.737 20.4765C178.097 20.4364 178.358 20.3764 178.518 20.2963C179.18 19.9758 179.511 19.395 179.511 18.5539V3.53345C179.511 3.11288 179.43 2.77242 179.27 2.51206C179.13 2.23168 178.879 2.00137 178.518 1.82112V1.79108C178.278 1.69095 177.997 1.60082 177.677 1.52071C177.356 1.42058 177.055 1.35048 176.775 1.31043V0.799734H184.832V1.28039C184.552 1.32044 184.241 1.37051 183.9 1.43059C183.559 1.49067 183.299 1.56077 183.118 1.64088Z" fill="#131313"/>
<path d="M210.067 11.9449C210.488 12.4255 210.789 12.9463 210.969 13.507C211.17 14.0678 211.27 14.6986 211.27 15.3996C211.27 17.182 210.628 18.624 209.346 19.7255C207.983 20.867 206.359 21.4378 204.475 21.4378C203.613 21.4378 202.731 21.3076 201.829 21.0473C200.927 20.8069 200.125 20.4665 199.424 20.0259L199.183 19.8757L198.492 21.0473H197.74L197.56 14.4984H198.221C198.462 15.3195 198.742 16.0805 199.063 16.7815C199.384 17.4624 199.825 18.1233 200.386 18.7642V18.7942C200.967 19.4151 201.589 19.8857 202.25 20.2061C202.651 20.3864 203.052 20.5266 203.453 20.6267C203.854 20.7268 204.285 20.7769 204.746 20.7769C206.149 20.7769 207.221 20.4064 207.963 19.6654C208.624 18.9845 208.955 18.0332 208.955 16.8115C208.955 15.8502 208.694 15.0091 208.173 14.2881C207.652 13.5471 206.93 12.9763 206.008 12.5758H205.978C205.898 12.5357 205.818 12.5057 205.738 12.4856C205.658 12.4656 205.577 12.4356 205.497 12.3955C204.876 12.1752 204.214 11.9349 203.513 11.6745C202.811 11.3941 202.2 11.1238 201.679 10.8634C200.436 10.3427 199.524 9.6718 198.943 8.85069C198.382 8.00954 198.101 6.95811 198.101 5.69639C198.101 4.99544 198.251 4.32453 198.552 3.68366C198.853 3.02276 199.294 2.42194 199.875 1.88121C200.436 1.38052 201.078 1.00001 201.799 0.739651C202.541 0.479298 203.322 0.349121 204.144 0.349121C205.026 0.349121 205.818 0.479298 206.519 0.739651C207.221 0.979978 207.932 1.31043 208.654 1.731L208.895 1.88121L209.556 0.799734H210.308L210.398 7.13836H209.706C209.506 6.4374 209.275 5.72643 209.015 5.00545C208.754 4.26445 208.404 3.59353 207.963 2.99272C207.441 2.31179 206.85 1.82112 206.189 1.52071C205.547 1.20028 204.806 1.04006 203.964 1.04006C203.443 1.04006 202.962 1.13018 202.521 1.31043C202.08 1.47065 201.689 1.70096 201.348 2.00137C201.027 2.30178 200.767 2.66227 200.566 3.08284C200.386 3.48338 200.296 3.92398 200.296 4.40464C200.296 6.20709 201.178 7.52889 202.942 8.37003C203.363 8.5703 203.773 8.75055 204.174 8.91077C204.575 9.07098 204.976 9.2312 205.377 9.39142C205.658 9.49156 205.928 9.60171 206.189 9.72187C206.469 9.82201 206.75 9.93216 207.031 10.0523C208.313 10.573 209.326 11.2039 210.067 11.9449Z" fill="#131313"/>
</svg>
