<svg xmlns="http://www.w3.org/2000/svg" width="132" height="51" viewBox="0 0 132 51" fill="none">
  <g clip-path="url(#clip0_953_511)">
    <path d="M66.3123 43.7738V33.8711L59.3652 2.29346H66.4197L68.4027 12.3604L69.0975 24.5431H70.3606L71.049 12.3604L73.032 2.29346H80.2065L73.2594 33.8711V43.7738H66.3123Z" fill="#5100BF"/>
    <path d="M82.373 43.7739V2.28088H91.2779C94.7178 2.28088 97.2061 3.06401 98.7429 4.63026C100.28 6.19651 101.096 8.78587 101.193 12.3984C101.244 13.8509 101.269 15.1982 101.269 16.4403C101.269 17.6823 101.244 19.0233 101.193 20.4633C101.088 24.0547 100.271 26.6399 98.7429 28.2187C97.2145 29.7976 94.7262 30.5829 91.2779 30.5744H89.2949V43.7739H82.373ZM89.3201 23.7537H91.3032C91.6971 23.7788 92.0921 23.724 92.4643 23.5927C92.8366 23.4614 93.1784 23.2562 93.4694 22.9895C93.99 22.4152 94.2782 21.6678 94.2778 20.8927C94.322 20.0401 94.3536 19.0865 94.3662 18.0255C94.3789 16.9645 94.3662 15.8972 94.3662 14.8677C94.3662 13.8383 94.322 12.8468 94.2778 12.0005C94.2877 11.2124 93.9989 10.4497 93.4694 9.86583C93.172 9.60258 92.8248 9.40158 92.4484 9.27467C92.0721 9.14776 91.6741 9.09752 91.2779 9.12691H89.2949L89.3201 23.7537Z" fill="#5100BF"/>
    <path d="M104.08 43.7739V2.28088H111.027V43.7739H104.08Z" fill="#5100BF"/>
    <path d="M119.053 43.7739V9.12691H113.123V2.28088H131.899V9.12691H125.969V43.7739H119.053Z" fill="#5100BF"/>
    <path d="M12.3283 23.3242L8.24219 27.4104C19.2754 38.7783 38.3609 39.2772 50.0636 27.4104L45.9648 23.3305C43.7708 25.5521 41.1538 27.3115 38.2684 28.5047C35.3831 29.6979 32.2878 30.3007 29.1655 30.2776C26.0371 30.3004 22.9358 29.6969 20.0441 28.5027C17.1525 27.3085 14.5291 25.5478 12.3283 23.3242Z" fill="#5100BF"/>
    <path d="M5.68397 31.0734L0 36.7573C15.3909 52.5461 41.9919 53.304 58.2986 36.7889L52.6146 31.1049C46.1033 37.3889 38.3163 40.7803 29.1714 40.7803C20.0265 40.7803 12.2079 37.3952 5.68397 31.0734Z" fill="#5100BF"/>
    <path d="M20.4998 15.0824L16.4831 19.0864C16.4598 19.123 16.4387 19.161 16.4199 19.2001C18.0815 20.8853 20.0606 22.2246 22.2429 23.1404C24.4251 24.0562 26.7672 24.5304 29.1339 24.5357C31.5005 24.541 33.8447 24.0772 36.031 23.1712C38.2173 22.2651 40.2024 20.9347 41.8715 19.257C40.5073 17.9054 39.1495 16.5476 37.7601 15.1645C36.625 16.2966 35.2776 17.1934 33.7952 17.8034C32.3127 18.4135 30.7243 18.7248 29.1213 18.7195C27.5182 18.7143 25.9319 18.3925 24.4535 17.7727C22.9751 17.1528 21.6336 16.2472 20.5061 15.1077L20.4998 15.0824Z" fill="#5100BF"/>
    <path d="M26.1024 13.0994C29.4544 13.0994 32.1716 10.3821 32.1716 7.03016C32.1716 3.67822 29.4544 0.960938 26.1024 0.960938C22.7505 0.960938 20.0332 3.67822 20.0332 7.03016C20.0332 10.3821 22.7505 13.0994 26.1024 13.0994Z" stroke="#5100BF" stroke-width="0.533184"/>
    <path d="M32.1708 13.0994C35.5227 13.0994 38.24 10.3821 38.24 7.03016C38.24 3.67822 35.5227 0.960938 32.1708 0.960938C28.8188 0.960938 26.1016 3.67822 26.1016 7.03016C26.1016 10.3821 28.8188 13.0994 32.1708 13.0994Z" stroke="#5100BF" stroke-width="0.533184"/>
    <path d="M63.6846 50.5694V49.3821L62.9141 45.8264H63.5456L63.7919 47.0895L63.9182 48.46H64.0509L64.1772 47.0895L64.4172 45.8264H65.0487L64.2782 49.3884V50.5757L63.6846 50.5694Z" fill="#5100BF"/>
    <path d="M66.7735 50.6198C66.6372 50.6459 66.4965 50.6387 66.3635 50.5989C66.2305 50.5592 66.109 50.488 66.0092 50.3913C65.9095 50.2947 65.8345 50.1755 65.7906 50.0438C65.7466 49.9121 65.735 49.7718 65.7567 49.6346C65.7567 49.401 65.7567 49.161 65.7567 48.921C65.7567 48.681 65.7567 48.4347 65.7567 48.1947C65.7567 47.9547 65.7567 47.7084 65.7567 47.4684C65.7567 47.2284 65.7567 46.9884 65.7567 46.7484C65.7774 46.5477 65.852 46.3563 65.9726 46.1946C66.0932 46.0329 66.2554 45.9068 66.4418 45.8297C66.6283 45.7527 66.8322 45.7275 67.0318 45.757C67.2314 45.7864 67.4193 45.8693 67.5756 45.9969C67.7481 46.2081 67.8359 46.476 67.8219 46.7484C67.8219 46.9947 67.8219 47.2347 67.8219 47.4747C67.8219 47.7147 67.8219 47.9547 67.8219 48.1947C67.8219 48.4347 67.8219 48.6747 67.8219 48.921C67.8219 49.1673 67.8219 49.401 67.8219 49.6346C67.8369 49.9091 67.7491 50.1793 67.5756 50.3925C67.464 50.4823 67.3355 50.5487 67.1977 50.5877C67.0599 50.6268 66.9157 50.6377 66.7735 50.6198ZM66.7735 50.0893C66.8751 50.0971 66.976 50.0679 67.0577 50.0072C67.1213 49.9362 67.1552 49.8436 67.1525 49.7483C67.1525 49.502 67.1525 49.2494 67.1525 48.9841C67.1525 48.7189 67.1525 48.4536 67.1525 48.1884C67.1525 47.9231 67.1525 47.6515 67.1525 47.3926C67.1525 47.1337 67.1525 46.8811 67.1525 46.6411C67.1552 46.5458 67.1213 46.4532 67.0577 46.3821C66.975 46.3234 66.8748 46.2945 66.7735 46.3C66.6761 46.2943 66.5799 46.3234 66.502 46.3821C66.4682 46.416 66.4418 46.4565 66.4244 46.5011C66.407 46.5456 66.399 46.5933 66.4009 46.6411C66.4009 46.8811 66.4009 47.1274 66.4009 47.3926C66.4009 47.6579 66.4009 47.9168 66.4009 48.1884C66.4009 48.4599 66.4009 48.7189 66.4009 48.9841C66.4009 49.2494 66.4009 49.502 66.4009 49.7483C66.399 49.7961 66.407 49.8438 66.4244 49.8883C66.4418 49.9329 66.4682 49.9734 66.502 50.0072C66.5799 50.066 66.6761 50.0951 66.7735 50.0893Z" fill="#5100BF"/>
    <path d="M69.7553 50.6199C69.4787 50.6473 69.2022 50.5657 68.9848 50.3925C68.896 50.2888 68.8289 50.1682 68.7877 50.038C68.7464 49.9078 68.7319 49.7706 68.7448 49.6346C68.7448 49.0031 68.7448 48.3715 68.7448 47.74C68.7448 47.1084 68.7448 46.4769 68.7448 45.8453H69.3764C69.3764 46.2685 69.3764 46.7042 69.3764 47.1463V48.4789C69.3764 48.921 69.3764 49.3568 69.3764 49.7736C69.373 49.82 69.3797 49.8667 69.396 49.9103C69.4124 49.9539 69.438 49.9935 69.4711 50.0262C69.5495 50.0892 69.6486 50.1208 69.749 50.1146C69.8495 50.1214 69.9488 50.0898 70.0269 50.0262C70.0579 49.9922 70.0817 49.9523 70.0969 49.9089C70.1121 49.8655 70.1183 49.8195 70.1153 49.7736C70.1153 49.3568 70.1153 48.921 70.1153 48.4789V47.1211C70.1153 46.679 70.1153 46.2432 70.1153 45.8201H70.7468C70.7468 46.4516 70.7468 47.0832 70.7468 47.7147C70.7468 48.3463 70.7468 48.9778 70.7468 49.6094C70.7713 49.7464 70.7619 49.8874 70.7193 50.02C70.6768 50.1525 70.6024 50.2726 70.5027 50.3698C70.4031 50.467 70.2811 50.5383 70.1475 50.5775C70.0139 50.6167 69.8727 50.6226 69.7364 50.5946L69.7553 50.6199Z" fill="#5100BF"/>
    <path d="M71.7383 50.5693V45.8201H72.7172L73.0203 47.3295L73.3866 50.0009H73.5319L73.4119 47.6768L73.3677 45.8201H73.9992V50.5693H72.9761L72.6288 48.9399L72.3383 46.4137H72.1804L72.2941 48.7947L72.3446 50.5946L71.7383 50.5693Z" fill="#5100BF"/>
    <path d="M76.0012 50.6199C75.8025 50.6294 75.6041 50.5949 75.4202 50.5188C75.3484 50.49 75.2829 50.4473 75.2276 50.3931C75.1724 50.3389 75.1283 50.2743 75.0981 50.2031C75.0214 50.0235 74.9827 49.83 74.9844 49.6347C74.9844 49.4136 74.9844 49.1863 74.9844 48.94V47.4748C74.9844 47.2348 74.9844 47.0074 74.9844 46.7927C74.9865 46.589 75.0272 46.3875 75.1044 46.199C75.1667 46.053 75.2817 45.9357 75.4265 45.8706C75.6072 45.7987 75.8006 45.7644 75.9949 45.7696C76.2634 45.7461 76.5305 45.8276 76.7401 45.9969C76.9159 46.2092 77.006 46.4795 76.9928 46.7548C76.9928 46.8748 76.9928 47.0074 76.9928 47.14C76.9928 47.2727 76.9928 47.4116 76.9928 47.5316H76.3612C76.3612 47.399 76.3612 47.2537 76.3612 47.0895C76.3612 46.9253 76.3612 46.7737 76.3612 46.6411C76.3636 46.5478 76.3296 46.4572 76.2665 46.3885C76.1929 46.3257 76.0978 46.294 76.0012 46.3001C75.9534 46.2964 75.9052 46.3023 75.8597 46.3175C75.8141 46.3327 75.7721 46.3568 75.736 46.3885C75.7024 46.4212 75.676 46.4606 75.6586 46.5041C75.6412 46.5476 75.6331 46.5943 75.6349 46.6411C75.6349 46.8874 75.6349 47.14 75.6349 47.4053C75.6349 47.6705 75.6349 47.9295 75.6349 48.1947C75.6349 48.46 75.6349 48.7189 75.6349 48.9842C75.6349 49.2494 75.6349 49.4957 75.6349 49.7484C75.6338 49.8414 75.6676 49.9316 75.7297 50.001C75.8078 50.0645 75.9071 50.0962 76.0075 50.0894C76.1097 50.0942 76.2103 50.0629 76.2917 50.001C76.3259 49.9684 76.353 49.9291 76.3714 49.8857C76.3899 49.8423 76.3993 49.7955 76.3991 49.7484C76.3991 49.6726 76.3991 49.5841 76.3991 49.4957V49.2178C76.3991 49.1294 76.3991 49.0473 76.3991 48.9715H76.0391V48.4095H77.0496C77.0496 48.5737 77.0496 48.7631 77.0496 48.9715C77.0496 49.18 77.0496 49.401 77.0496 49.6031C77.0619 49.8763 76.9718 50.1443 76.797 50.3546C76.6902 50.4519 76.5642 50.5257 76.4272 50.5714C76.2901 50.6171 76.145 50.6336 76.0012 50.6199Z" fill="#5100BF"/>
    <path d="M82.2031 50.5694V45.8201H83.1378C83.4141 45.7959 83.6894 45.8771 83.9083 46.0475C84.0859 46.2487 84.1767 46.5121 84.1609 46.7801C84.1609 47.0011 84.1609 47.1969 84.1609 47.3737C84.1609 47.5506 84.1609 47.7274 84.1609 47.9232C84.1757 48.1929 84.0851 48.4578 83.9083 48.6621C83.6863 48.8306 83.409 48.9095 83.1315 48.8831H82.841V50.5694H82.2031ZM82.8347 48.3147H83.1252C83.1753 48.3235 83.2267 48.3207 83.2756 48.3066C83.3245 48.2926 83.3695 48.2675 83.4072 48.2334C83.445 48.1993 83.4745 48.1571 83.4934 48.1099C83.5124 48.0627 83.5204 48.0118 83.5168 47.9611C83.5168 47.8284 83.5168 47.6958 83.5168 47.5569V47.1464C83.5168 47.0074 83.5168 46.8748 83.5168 46.7485C83.5174 46.6505 83.4814 46.5559 83.4157 46.4832C83.3766 46.4504 83.3313 46.4256 83.2825 46.4105C83.2337 46.3953 83.1824 46.39 83.1315 46.3948H82.8347V48.3147Z" fill="#5100BF"/>
    <path d="M85.0566 50.5693V45.8201H86.7492V46.3948H85.6945V47.8789H86.686V48.4473H85.6945V50.0009H86.7492V50.5693H85.0566Z" fill="#5100BF"/>
    <path d="M88.614 50.6199C88.3395 50.645 88.0659 50.5636 87.8498 50.3925C87.7587 50.2898 87.6894 50.1697 87.6459 50.0394C87.6025 49.9092 87.5859 49.7715 87.5972 49.6347C87.5972 49.401 87.5972 49.161 87.5972 48.921C87.5972 48.681 87.5972 48.4347 87.5972 48.1947C87.5972 47.9547 87.5972 47.7084 87.5972 47.4684C87.5972 47.2285 87.5972 46.9885 87.5972 46.7485C87.5864 46.6126 87.6033 46.476 87.6467 46.3469C87.6901 46.2177 87.7592 46.0987 87.8498 45.9969C88.0782 45.8485 88.3447 45.7695 88.6171 45.7695C88.8895 45.7695 89.1561 45.8485 89.3845 45.9969C89.557 46.2082 89.6448 46.4761 89.6308 46.7485C89.6308 46.9948 89.6308 47.2348 89.6308 47.4748C89.6308 47.7147 89.6308 47.9547 89.6308 48.1947C89.6308 48.4347 89.6308 48.6747 89.6308 48.921C89.6308 49.1673 89.6308 49.401 89.6308 49.6347C89.6458 49.9091 89.5579 50.1793 89.3845 50.3925C89.1664 50.5646 88.8905 50.646 88.614 50.6199ZM88.614 50.0894C88.7153 50.095 88.8154 50.066 88.8982 50.0073C88.9297 49.9724 88.9537 49.9314 88.9689 49.8869C88.9841 49.8424 88.9901 49.7953 88.9866 49.7484C88.9866 49.502 88.9866 49.2494 88.9866 48.9842C88.9866 48.7189 88.9866 48.4537 88.9866 48.1884C88.9866 47.9232 88.9866 47.6516 88.9866 47.3927C88.9866 47.1337 88.9866 46.8811 88.9866 46.6411C88.9909 46.5936 88.9847 46.5458 88.9683 46.501C88.9519 46.4562 88.9258 46.4156 88.8918 46.3822C88.812 46.3225 88.7134 46.2933 88.614 46.3001C88.5147 46.2954 88.4169 46.3244 88.3361 46.3822C88.2726 46.4532 88.2387 46.5459 88.2413 46.6411C88.2413 46.8811 88.2413 47.1274 88.2413 47.3927C88.2413 47.6579 88.2413 47.9168 88.2413 48.1884C88.2413 48.46 88.2413 48.7189 88.2413 48.9842C88.2413 49.2494 88.2413 49.502 88.2413 49.7484C88.2387 49.8436 88.2726 49.9363 88.3361 50.0073C88.4169 50.0651 88.5147 50.094 88.614 50.0894Z" fill="#5100BF"/>
    <path d="M90.6211 50.5693V45.8201H91.5747C91.8511 45.7952 92.1266 45.8765 92.3452 46.0474C92.5251 46.2477 92.6182 46.5112 92.6042 46.78C92.6042 47.0011 92.6042 47.1968 92.6042 47.3737C92.6042 47.5505 92.6042 47.7273 92.6042 47.9231C92.6165 48.1936 92.5237 48.4584 92.3452 48.662C92.1257 48.8307 91.8503 48.9097 91.5747 48.8831H91.2842V50.5693H90.6211ZM91.2526 48.3147H91.5747C91.6256 48.3195 91.6769 48.3142 91.7257 48.299C91.7745 48.2838 91.8198 48.2591 91.8589 48.2263C91.8926 48.191 91.9188 48.1494 91.9362 48.1038C91.9535 48.0583 91.9616 48.0097 91.96 47.961C91.96 47.8284 91.96 47.6958 91.96 47.5568V47.1463C91.96 47.0074 91.96 46.8747 91.96 46.7484C91.9616 46.6997 91.9535 46.6512 91.9362 46.6056C91.9188 46.5601 91.8926 46.5184 91.8589 46.4832C91.8198 46.4503 91.7745 46.4256 91.7257 46.4104C91.6769 46.3952 91.6256 46.3899 91.5747 46.3948H91.2842L91.2526 48.3147Z" fill="#5100BF"/>
    <path d="M93.4707 50.5693V45.8201H94.1023V50.0009H95.1633V50.5693H93.4707Z" fill="#5100BF"/>
    <path d="M95.9961 50.5693V45.8201H97.6886V46.3948H96.6276V47.8789H97.6192V48.4473H96.6276V50.0009H97.6823V50.5693H95.9961Z" fill="#5100BF"/>
    <path d="M105.172 50.5693V45.8201H105.803V50.5693H105.172Z" fill="#5100BF"/>
    <path d="M106.828 50.5693V45.8201H107.807L108.116 47.3295L108.483 50.0009H108.628L108.508 47.6768L108.464 45.8201H109.095V50.5693H108.06L107.738 48.9399L107.447 46.4137H107.289L107.403 48.7947L107.453 50.5946L106.828 50.5693Z" fill="#5100BF"/>
    <path d="M117.209 50.5693V46.3948H116.527V45.8201H118.536V46.3948H117.854V50.5693H117.209Z" fill="#5100BF"/>
    <path d="M119.307 50.5693V45.8201H120.999V46.3948H119.945V47.8789H120.936V48.4473H119.945V50.0009H120.999V50.5693H119.307Z" fill="#5100BF"/>
    <path d="M122.856 50.62C122.719 50.6479 122.578 50.642 122.445 50.6029C122.311 50.5637 122.189 50.4924 122.089 50.3952C121.99 50.298 121.915 50.1779 121.873 50.0453C121.83 49.9128 121.821 49.7718 121.845 49.6347C121.845 49.4137 121.845 49.18 121.845 48.9337C121.845 48.6874 121.845 48.4474 121.845 48.1948C121.845 47.9422 121.845 47.6959 121.845 47.4496C121.845 47.2033 121.845 46.9759 121.845 46.7549C121.834 46.4905 121.922 46.2315 122.092 46.0286C122.194 45.9362 122.314 45.866 122.444 45.8226C122.574 45.7791 122.713 45.7632 122.85 45.776C123.124 45.7508 123.398 45.8322 123.614 46.0033C123.786 46.2146 123.874 46.4825 123.86 46.7549V47.2917C123.86 47.3801 123.86 47.4685 123.86 47.538H123.228C123.228 47.4496 123.228 47.3485 123.228 47.2475V46.9317C123.228 46.8306 123.228 46.7296 123.228 46.6412C123.237 46.5911 123.235 46.5398 123.222 46.4907C123.209 46.4416 123.185 46.3959 123.153 46.357C123.072 46.2982 122.974 46.2692 122.875 46.2749C122.779 46.2701 122.685 46.2991 122.61 46.357C122.576 46.3904 122.549 46.431 122.533 46.4758C122.517 46.5206 122.51 46.5684 122.515 46.6159C122.515 46.8685 122.515 47.1275 122.515 47.3864C122.515 47.6453 122.515 47.9106 122.515 48.1695C122.515 48.4285 122.515 48.7 122.515 48.959C122.515 49.2179 122.515 49.4705 122.515 49.7232C122.511 49.7706 122.518 49.8182 122.534 49.8628C122.551 49.9075 122.576 49.9481 122.61 49.9821C122.686 50.0436 122.783 50.073 122.881 50.0642C122.985 50.0735 123.088 50.0442 123.172 49.9821C123.205 49.9481 123.231 49.9075 123.247 49.8628C123.263 49.8182 123.27 49.7706 123.266 49.7232C123.266 49.6347 123.266 49.5337 123.266 49.4263C123.266 49.319 123.266 49.2053 123.266 49.0979C123.266 48.9906 123.266 48.8895 123.266 48.7948H123.898C123.898 48.9274 123.898 49.0663 123.898 49.2053C123.898 49.3442 123.898 49.4768 123.898 49.6095C123.919 49.8847 123.83 50.157 123.652 50.3673C123.429 50.5517 123.144 50.6424 122.856 50.62Z" fill="#5100BF"/>
    <path d="M124.82 50.5693V45.8201H125.452V47.8789H126.14V45.8201H126.772V50.5693H126.14V48.4473H125.452V50.5693H124.82Z" fill="#5100BF"/>
  </g>
  <defs>
    <clipPath id="clip0_953_511">
      <rect width="131.9" height="50.24" fill="white" transform="translate(0 0.380005)"/>
    </clipPath>
  </defs>
</svg>