<svg width="23" height="21" viewBox="0 0 23 21" fill="none" xmlns="http://www.w3.org/2000/svg">
<path d="M6.1889 0.533325C4.96487 0.533254 3.76831 0.896167 2.75054 1.57617C1.73278 2.25617 0.939522 3.22271 0.471097 4.35356C0.00267194 5.48441 -0.119882 6.72877 0.118933 7.92928C0.357749 9.12978 0.947208 10.2325 1.81276 11.098L10.9576 20.2428C11.0288 20.3142 11.1134 20.3708 11.2065 20.4095C11.2997 20.4481 11.3995 20.468 11.5004 20.468C11.6012 20.468 11.7011 20.4481 11.7942 20.4095C11.8873 20.3708 11.9719 20.3142 12.0432 20.2428L21.188 11.0965C22.3172 9.92964 22.9425 8.36577 22.9292 6.74209C22.9159 5.1184 22.265 3.56498 21.1169 2.41682C19.9687 1.26867 18.4153 0.617753 16.7916 0.604453C15.1679 0.591152 13.604 1.21653 12.4372 2.34573L11.5004 3.28106L10.565 2.34573C9.99015 1.7709 9.30765 1.31497 8.55651 1.00399C7.80538 0.693011 7.00186 0.533077 6.1889 0.533325Z" fill="#8E8D8D"/>
</svg>
